<mxfile host="Electron" agent="Mozilla/5.0 (Windows NT 10.0; Win64; x64) AppleWebKit/537.36 (KHTML, like Gecko) draw.io/24.7.17 Chrome/128.0.6613.36 Electron/32.0.1 Safari/537.36" version="24.7.17">
  <diagram name="Page-1" id="FNmSrduUZ5u_OLCGWbWd">
    <mxGraphModel dx="2061" dy="1145" grid="0" gridSize="10" guides="1" tooltips="1" connect="1" arrows="1" fold="1" page="0" pageScale="1" pageWidth="850" pageHeight="1100" math="0" shadow="0">
      <root>
        <mxCell id="0" />
        <mxCell id="1" parent="0" />
        <mxCell id="TE_OKRkOsK2o-EMoypv2-3" value="" style="rounded=0;whiteSpace=wrap;html=1;dashed=1;fillColor=#e3e3e3;strokeWidth=2;strokeColor=#851B85;" parent="1" vertex="1">
          <mxGeometry x="-310" y="561" width="372" height="142" as="geometry" />
        </mxCell>
        <mxCell id="urqGO7AWTMC_Ui9AjQ2h-18" value="" style="rounded=0;whiteSpace=wrap;html=1;dashed=1;fillColor=#e3e3e3;strokeWidth=2;" parent="1" vertex="1">
          <mxGeometry x="-312" y="-135" width="369" height="245" as="geometry" />
        </mxCell>
        <mxCell id="ILpzqOGEgMHz32oO7xNn-144" value="" style="rounded=0;whiteSpace=wrap;html=1;textShadow=0;strokeColor=#780000;dashed=1;fillColor=#e3e3e3;shadow=0;strokeWidth=2;" parent="1" vertex="1">
          <mxGeometry x="-308" y="129" width="369" height="407" as="geometry" />
        </mxCell>
        <mxCell id="ILpzqOGEgMHz32oO7xNn-142" value="" style="rounded=0;whiteSpace=wrap;html=1;textShadow=0;strokeColor=#005700;dashed=1;fillColor=#E3E3E3;fontColor=#ffffff;shadow=0;strokeWidth=2;" parent="1" vertex="1">
          <mxGeometry x="77" y="-162" width="985" height="879" as="geometry" />
        </mxCell>
        <mxCell id="P7hO2bbnkR11tL--QpdS-53" value="" style="rounded=0;whiteSpace=wrap;html=1;fillColor=#dae8fc;strokeWidth=2;strokeColor=#6c8ebf;dashed=1;dashPattern=1 1;" parent="1" vertex="1">
          <mxGeometry x="767" y="-11" width="270" height="704" as="geometry" />
        </mxCell>
        <mxCell id="F7NgOxPpogLXM8x-Sb1u-3" value="" style="rounded=0;whiteSpace=wrap;html=1;fillColor=#dae8fc;strokeWidth=2;strokeColor=#6c8ebf;dashed=1;dashPattern=1 1;" parent="1" vertex="1">
          <mxGeometry x="-165" y="160" width="388" height="351" as="geometry" />
        </mxCell>
        <mxCell id="TE_OKRkOsK2o-EMoypv2-15" value="" style="rounded=0;whiteSpace=wrap;html=1;fillColor=#e1d5e7;strokeWidth=2;strokeColor=#9673a6;dashed=1;dashPattern=1 1;" parent="1" vertex="1">
          <mxGeometry x="237" y="-9" width="515" height="705" as="geometry" />
        </mxCell>
        <mxCell id="TE_OKRkOsK2o-EMoypv2-13" value="" style="rounded=0;whiteSpace=wrap;html=1;fillColor=#dae8fc;strokeWidth=2;strokeColor=#6c8ebf;dashed=1;dashPattern=1 1;" parent="1" vertex="1">
          <mxGeometry x="236" y="-127" width="799" height="86" as="geometry" />
        </mxCell>
        <mxCell id="ILpzqOGEgMHz32oO7xNn-136" value="" style="rounded=1;whiteSpace=wrap;html=1;textShadow=0;strokeColor=default;dashed=1;fillColor=#F7E3EE;shadow=1;strokeWidth=1;" parent="1" vertex="1">
          <mxGeometry x="540" y="179" width="191" height="69" as="geometry" />
        </mxCell>
        <mxCell id="ILpzqOGEgMHz32oO7xNn-134" value="" style="rounded=1;whiteSpace=wrap;html=1;textShadow=0;dashed=1;fillColor=#f7e3ee;shadow=1;strokeWidth=1;" parent="1" vertex="1">
          <mxGeometry x="272" y="41" width="181" height="74" as="geometry" />
        </mxCell>
        <mxCell id="hqVNRMzppCiJ99_KFiAW-224" style="edgeStyle=orthogonalEdgeStyle;rounded=0;orthogonalLoop=1;jettySize=auto;html=1;entryX=0;entryY=0.5;entryDx=0;entryDy=0;strokeWidth=2;strokeColor=#005700;" parent="1" source="ILpzqOGEgMHz32oO7xNn-1" edge="1">
          <mxGeometry relative="1" as="geometry">
            <mxPoint x="-252" y="361.5" as="targetPoint" />
          </mxGeometry>
        </mxCell>
        <mxCell id="ILpzqOGEgMHz32oO7xNn-1" value="Users" style="outlineConnect=0;fontColor=#232F3E;gradientColor=none;strokeColor=#232F3E;fillColor=none;dashed=0;verticalLabelPosition=bottom;verticalAlign=top;align=center;html=1;fontSize=13;fontStyle=1;aspect=fixed;shape=mxgraph.aws4.resourceIcon;resIcon=mxgraph.aws4.users;rounded=0;" parent="1" vertex="1">
          <mxGeometry x="-392" y="332.25" width="60" height="60" as="geometry" />
        </mxCell>
        <mxCell id="ILpzqOGEgMHz32oO7xNn-11" value="&lt;font style=&quot;font-size: 11px;&quot;&gt;CDN&lt;/font&gt;" style="text;html=1;align=center;verticalAlign=middle;resizable=0;points=[];autosize=1;strokeColor=none;fillColor=none;fontSize=16;rounded=0;fontStyle=1" parent="1" vertex="1">
          <mxGeometry x="-93" y="182" width="42" height="31" as="geometry" />
        </mxCell>
        <mxCell id="ILpzqOGEgMHz32oO7xNn-27" value="" style="rounded=1;whiteSpace=wrap;html=1;fillColor=#f5f5f5;gradientColor=#b3b3b3;strokeColor=#666666;" parent="1" vertex="1">
          <mxGeometry x="280" y="52" width="72" height="46" as="geometry" />
        </mxCell>
        <mxCell id="ILpzqOGEgMHz32oO7xNn-28" value="" style="shape=cylinder3;whiteSpace=wrap;html=1;boundedLbl=1;backgroundOutline=1;size=15;rounded=0;fillColor=#CCCCFF;fontColor=#ffffff;strokeColor=#000000;" parent="1" vertex="1">
          <mxGeometry x="390" y="49" width="51" height="57" as="geometry" />
        </mxCell>
        <mxCell id="ILpzqOGEgMHz32oO7xNn-49" value="" style="rounded=1;whiteSpace=wrap;html=1;fillColor=#cdeb8b;strokeColor=#36393d;shadow=1;" parent="1" vertex="1">
          <mxGeometry x="552.5" y="185" width="65.5" height="44" as="geometry" />
        </mxCell>
        <mxCell id="ILpzqOGEgMHz32oO7xNn-50" value="" style="rounded=1;whiteSpace=wrap;html=1;fillColor=#f5f5f5;gradientColor=#b3b3b3;strokeColor=#666666;" parent="1" vertex="1">
          <mxGeometry x="285" y="56" width="74" height="45" as="geometry" />
        </mxCell>
        <mxCell id="O0o4bAYuVbN3omt0_8oD-17" value="" style="edgeStyle=orthogonalEdgeStyle;rounded=0;orthogonalLoop=1;jettySize=auto;html=1;dashed=1;dashPattern=1 1;" parent="1" source="ILpzqOGEgMHz32oO7xNn-51" target="ILpzqOGEgMHz32oO7xNn-123" edge="1">
          <mxGeometry relative="1" as="geometry" />
        </mxCell>
        <mxCell id="ILpzqOGEgMHz32oO7xNn-51" value="Search&lt;div&gt;Service&lt;/div&gt;" style="rounded=1;whiteSpace=wrap;html=1;fillColor=#f5f5f5;strokeColor=#666666;gradientColor=#b3b3b3;fontStyle=1" parent="1" vertex="1">
          <mxGeometry x="290" y="60" width="73" height="43" as="geometry" />
        </mxCell>
        <mxCell id="ILpzqOGEgMHz32oO7xNn-55" value="" style="rounded=1;whiteSpace=wrap;html=1;fillColor=#cdeb8b;strokeColor=#36393d;shadow=1;" parent="1" vertex="1">
          <mxGeometry x="558.5" y="190" width="69.5" height="42" as="geometry" />
        </mxCell>
        <mxCell id="ILpzqOGEgMHz32oO7xNn-56" value="Inventory&lt;div&gt;Service&lt;/div&gt;" style="rounded=1;whiteSpace=wrap;html=1;fillColor=#cdeb8b;strokeColor=#36393d;gradientColor=none;shadow=1;fontStyle=1" parent="1" vertex="1">
          <mxGeometry x="564.5" y="196" width="71.5" height="41" as="geometry" />
        </mxCell>
        <mxCell id="ILpzqOGEgMHz32oO7xNn-57" value="" style="shape=cylinder3;whiteSpace=wrap;html=1;boundedLbl=1;backgroundOutline=1;size=15;rounded=0;fillColor=#f5f5f5;strokeColor=#666666;gradientColor=#b3b3b3;" parent="1" vertex="1">
          <mxGeometry x="672.5" y="186.5" width="36.5" height="53.5" as="geometry" />
        </mxCell>
        <mxCell id="ILpzqOGEgMHz32oO7xNn-121" value="SQL&amp;nbsp;" style="shape=cylinder3;whiteSpace=wrap;html=1;boundedLbl=1;backgroundOutline=1;size=15;rounded=0;fillColor=#f5f5f5;strokeColor=#666666;gradientColor=#b3b3b3;fontStyle=1" parent="1" vertex="1">
          <mxGeometry x="679.5" y="190.5" width="37.5" height="53.5" as="geometry" />
        </mxCell>
        <mxCell id="ILpzqOGEgMHz32oO7xNn-123" value="&lt;font color=&quot;#000000&quot;&gt;Elastic&amp;nbsp;&lt;/font&gt;" style="shape=cylinder3;whiteSpace=wrap;html=1;boundedLbl=1;backgroundOutline=1;size=15;rounded=0;fillColor=#CCCCFF;fontColor=#ffffff;strokeColor=#000000;fontStyle=1" parent="1" vertex="1">
          <mxGeometry x="396" y="54" width="52" height="55" as="geometry" />
        </mxCell>
        <mxCell id="ILpzqOGEgMHz32oO7xNn-143" value="Private network" style="text;html=1;align=center;verticalAlign=middle;resizable=0;points=[];autosize=1;strokeColor=none;fillColor=none;fontSize=11;rounded=0;fontStyle=1" parent="1" vertex="1">
          <mxGeometry x="81" y="-161" width="94" height="25" as="geometry" />
        </mxCell>
        <mxCell id="ILpzqOGEgMHz32oO7xNn-145" value="&lt;font style=&quot;font-size: 11px;&quot;&gt;Public network&lt;/font&gt;" style="text;html=1;align=center;verticalAlign=middle;resizable=0;points=[];autosize=1;strokeColor=none;fillColor=none;fontSize=16;rounded=0;fontStyle=1" parent="1" vertex="1">
          <mxGeometry x="-308" y="129" width="90" height="31" as="geometry" />
        </mxCell>
        <mxCell id="ILpzqOGEgMHz32oO7xNn-146" style="edgeStyle=none;curved=0;rounded=0;orthogonalLoop=1;jettySize=auto;html=1;exitX=0;exitY=0.5;exitDx=0;exitDy=0;entryX=0;entryY=0.5;entryDx=0;entryDy=0;fontSize=12;startSize=8;endSize=8;fillColor=#008a00;strokeColor=#005700;strokeWidth=2;" parent="1" edge="1">
          <mxGeometry relative="1" as="geometry">
            <mxPoint x="-112" y="-59.25" as="sourcePoint" />
            <mxPoint x="16" y="-62.75" as="targetPoint" />
            <Array as="points" />
          </mxGeometry>
        </mxCell>
        <mxCell id="ILpzqOGEgMHz32oO7xNn-147" value="Synchronous - https/Rest" style="text;html=1;align=center;verticalAlign=middle;resizable=0;points=[];autosize=1;fontStyle=1" parent="1" vertex="1">
          <mxGeometry x="-308" y="-72" width="153" height="26" as="geometry" />
        </mxCell>
        <mxCell id="ILpzqOGEgMHz32oO7xNn-150" style="edgeStyle=none;curved=0;rounded=0;orthogonalLoop=1;jettySize=auto;html=1;entryX=1.006;entryY=0.378;entryDx=0;entryDy=0;entryPerimeter=0;fontSize=12;startSize=8;endSize=8;fillColor=#e51400;strokeColor=#B20000;strokeWidth=2;dashed=1;" parent="1" edge="1">
          <mxGeometry relative="1" as="geometry">
            <mxPoint x="-119" y="-8.5" as="sourcePoint" />
            <mxPoint x="12" y="-8.5" as="targetPoint" />
            <Array as="points" />
          </mxGeometry>
        </mxCell>
        <mxCell id="ILpzqOGEgMHz32oO7xNn-151" value="Asynchronous - Event driven" style="text;html=1;align=center;verticalAlign=middle;resizable=0;points=[];autosize=1;strokeColor=none;fillColor=none;fontStyle=1" parent="1" vertex="1">
          <mxGeometry x="-308.75" y="-16.5" width="171" height="26" as="geometry" />
        </mxCell>
        <mxCell id="ILpzqOGEgMHz32oO7xNn-157" value="" style="endArrow=classic;html=1;rounded=0;fillColor=#e3c800;strokeColor=#7D6A00;strokeWidth=2;" parent="1" edge="1">
          <mxGeometry width="50" height="50" relative="1" as="geometry">
            <mxPoint x="-112" y="-35.5" as="sourcePoint" />
            <mxPoint x="14" y="-38.5" as="targetPoint" />
          </mxGeometry>
        </mxCell>
        <mxCell id="ILpzqOGEgMHz32oO7xNn-158" value="Synchronous - grpc" style="text;html=1;align=center;verticalAlign=middle;resizable=0;points=[];autosize=1;strokeColor=none;fillColor=none;fontStyle=1" parent="1" vertex="1">
          <mxGeometry x="-311" y="-46" width="122" height="26" as="geometry" />
        </mxCell>
        <mxCell id="hqVNRMzppCiJ99_KFiAW-14" style="edgeStyle=orthogonalEdgeStyle;rounded=0;orthogonalLoop=1;jettySize=auto;html=1;exitX=1;exitY=0.5;exitDx=0;exitDy=0;entryX=0;entryY=0.5;entryDx=0;entryDy=0;entryPerimeter=0;dashed=1;dashPattern=1 1;" parent="1" source="ILpzqOGEgMHz32oO7xNn-56" target="ILpzqOGEgMHz32oO7xNn-121" edge="1">
          <mxGeometry relative="1" as="geometry" />
        </mxCell>
        <mxCell id="hqVNRMzppCiJ99_KFiAW-19" value="" style="rounded=1;whiteSpace=wrap;html=1;textShadow=0;strokeColor=default;dashed=1;fillColor=#F7E3EE;shadow=1;strokeWidth=1;" parent="1" vertex="1">
          <mxGeometry x="272" y="324" width="179" height="70" as="geometry" />
        </mxCell>
        <mxCell id="hqVNRMzppCiJ99_KFiAW-20" value="" style="rounded=1;whiteSpace=wrap;html=1;fillColor=#d5e8d4;strokeColor=#090D07;gradientColor=#97d077;shadow=1;" parent="1" vertex="1">
          <mxGeometry x="279.5" y="332.5" width="68.5" height="41.5" as="geometry" />
        </mxCell>
        <mxCell id="hqVNRMzppCiJ99_KFiAW-21" value="" style="shape=cylinder3;whiteSpace=wrap;html=1;boundedLbl=1;backgroundOutline=1;size=15;rounded=0;fillColor=#FF99CC;strokeColor=#660033;gradientColor=#CC0066;gradientDirection=north;" parent="1" vertex="1">
          <mxGeometry x="393.5" y="329.5" width="44.5" height="54.5" as="geometry" />
        </mxCell>
        <mxCell id="hqVNRMzppCiJ99_KFiAW-22" value="" style="rounded=1;whiteSpace=wrap;html=1;fillColor=#d5e8d4;strokeColor=#090D07;gradientColor=#97d077;shadow=1;" parent="1" vertex="1">
          <mxGeometry x="284.5" y="336.5" width="69.5" height="43.5" as="geometry" />
        </mxCell>
        <mxCell id="hqVNRMzppCiJ99_KFiAW-23" value="Cart&lt;div&gt;&lt;span style=&quot;background-color: initial;&quot;&gt;Service&lt;/span&gt;&lt;/div&gt;" style="rounded=1;whiteSpace=wrap;html=1;fillColor=#d5e8d4;gradientColor=#97d077;strokeColor=#090D07;shadow=1;fontStyle=1" parent="1" vertex="1">
          <mxGeometry x="290.5" y="340.5" width="70.5" height="40.5" as="geometry" />
        </mxCell>
        <mxCell id="hqVNRMzppCiJ99_KFiAW-24" value="&lt;font color=&quot;#000000&quot;&gt;KV&amp;nbsp;&lt;/font&gt;&lt;div&gt;&lt;font color=&quot;#000000&quot;&gt;Store&lt;/font&gt;&lt;/div&gt;" style="shape=cylinder3;whiteSpace=wrap;html=1;boundedLbl=1;backgroundOutline=1;size=15;rounded=0;fillColor=#FF99CC;strokeColor=#660033;fontColor=#000000;gradientDirection=north;gradientColor=#CC0066;fontStyle=1" parent="1" vertex="1">
          <mxGeometry x="399.5" y="334" width="42.5" height="53" as="geometry" />
        </mxCell>
        <mxCell id="hqVNRMzppCiJ99_KFiAW-28" style="edgeStyle=orthogonalEdgeStyle;rounded=0;orthogonalLoop=1;jettySize=auto;html=1;exitX=1;exitY=0.5;exitDx=0;exitDy=0;entryX=0;entryY=0.5;entryDx=0;entryDy=0;entryPerimeter=0;dashed=1;dashPattern=1 1;" parent="1" source="hqVNRMzppCiJ99_KFiAW-23" target="hqVNRMzppCiJ99_KFiAW-24" edge="1">
          <mxGeometry relative="1" as="geometry" />
        </mxCell>
        <mxCell id="hqVNRMzppCiJ99_KFiAW-30" value="" style="rounded=1;whiteSpace=wrap;html=1;textShadow=0;strokeColor=default;dashed=1;fillColor=#F7E3EE;shadow=1;strokeWidth=1;" parent="1" vertex="1">
          <mxGeometry x="275" y="182" width="174" height="68" as="geometry" />
        </mxCell>
        <mxCell id="hqVNRMzppCiJ99_KFiAW-31" value="" style="rounded=1;whiteSpace=wrap;html=1;fillColor=#b0e3e6;strokeColor=#0e8088;shadow=1;" parent="1" vertex="1">
          <mxGeometry x="281" y="192" width="62" height="38" as="geometry" />
        </mxCell>
        <mxCell id="hqVNRMzppCiJ99_KFiAW-32" value="" style="shape=cylinder3;whiteSpace=wrap;html=1;boundedLbl=1;backgroundOutline=1;size=15;rounded=0;fillColor=#f5f5f5;strokeColor=#666666;gradientColor=#b3b3b3;" parent="1" vertex="1">
          <mxGeometry x="391.25" y="189" width="37.75" height="50" as="geometry" />
        </mxCell>
        <mxCell id="hqVNRMzppCiJ99_KFiAW-33" value="" style="rounded=1;whiteSpace=wrap;html=1;fillColor=#b0e3e6;strokeColor=#0e8088;shadow=1;" parent="1" vertex="1">
          <mxGeometry x="285.25" y="196" width="65.75" height="39" as="geometry" />
        </mxCell>
        <mxCell id="hqVNRMzppCiJ99_KFiAW-34" value="Order&lt;div&gt;&lt;span style=&quot;background-color: initial;&quot;&gt;Service&lt;/span&gt;&lt;/div&gt;" style="rounded=1;whiteSpace=wrap;html=1;fillColor=#b0e3e6;strokeColor=#0e8088;shadow=1;fontStyle=1" parent="1" vertex="1">
          <mxGeometry x="290.25" y="200" width="68.75" height="39" as="geometry" />
        </mxCell>
        <mxCell id="hqVNRMzppCiJ99_KFiAW-35" value="SQL" style="shape=cylinder3;whiteSpace=wrap;html=1;boundedLbl=1;backgroundOutline=1;size=15;rounded=0;fillColor=#f5f5f5;strokeColor=#666666;gradientColor=#b3b3b3;fontStyle=1" parent="1" vertex="1">
          <mxGeometry x="396.25" y="194" width="37.75" height="50" as="geometry" />
        </mxCell>
        <mxCell id="hqVNRMzppCiJ99_KFiAW-40" style="edgeStyle=orthogonalEdgeStyle;rounded=0;orthogonalLoop=1;jettySize=auto;html=1;exitX=1;exitY=0.5;exitDx=0;exitDy=0;entryX=0;entryY=0.5;entryDx=0;entryDy=0;entryPerimeter=0;dashed=1;dashPattern=1 1;" parent="1" source="hqVNRMzppCiJ99_KFiAW-34" target="hqVNRMzppCiJ99_KFiAW-35" edge="1">
          <mxGeometry relative="1" as="geometry" />
        </mxCell>
        <mxCell id="hqVNRMzppCiJ99_KFiAW-50" value="" style="rounded=1;whiteSpace=wrap;html=1;textShadow=0;strokeColor=default;dashed=1;fillColor=#F7E3EE;shadow=1;strokeWidth=1;" parent="1" vertex="1">
          <mxGeometry x="546" y="325" width="188" height="71" as="geometry" />
        </mxCell>
        <mxCell id="hqVNRMzppCiJ99_KFiAW-51" value="" style="rounded=1;whiteSpace=wrap;html=1;fillColor=#dae8fc;strokeColor=#6c8ebf;gradientColor=#7ea6e0;shadow=1;" parent="1" vertex="1">
          <mxGeometry x="554" y="336.5" width="64" height="41.5" as="geometry" />
        </mxCell>
        <mxCell id="hqVNRMzppCiJ99_KFiAW-53" value="" style="rounded=1;whiteSpace=wrap;html=1;fillColor=#dae8fc;strokeColor=#6c8ebf;gradientColor=#7ea6e0;shadow=1;" parent="1" vertex="1">
          <mxGeometry x="560" y="342.5" width="67" height="39.5" as="geometry" />
        </mxCell>
        <mxCell id="hqVNRMzppCiJ99_KFiAW-54" value="Discount&lt;div&gt;&lt;span style=&quot;background-color: initial;&quot;&gt;Service&lt;/span&gt;&lt;/div&gt;" style="rounded=1;whiteSpace=wrap;html=1;fillColor=#dae8fc;gradientColor=#7ea6e0;strokeColor=#6c8ebf;shadow=1;fontStyle=1" parent="1" vertex="1">
          <mxGeometry x="565.75" y="348" width="67" height="39" as="geometry" />
        </mxCell>
        <mxCell id="TE_OKRkOsK2o-EMoypv2-5" style="edgeStyle=orthogonalEdgeStyle;rounded=0;orthogonalLoop=1;jettySize=auto;html=1;exitX=0.25;exitY=1;exitDx=0;exitDy=0;entryX=0;entryY=0.5;entryDx=0;entryDy=0;strokeWidth=2;strokeColor=#851B85;" parent="1" source="hqVNRMzppCiJ99_KFiAW-59" target="uyhA110zfRlWLcyk9HhF-11" edge="1">
          <mxGeometry relative="1" as="geometry">
            <Array as="points">
              <mxPoint x="318" y="548" />
              <mxPoint x="-60" y="548" />
            </Array>
          </mxGeometry>
        </mxCell>
        <mxCell id="hqVNRMzppCiJ99_KFiAW-59" value="" style="rounded=1;whiteSpace=wrap;html=1;textShadow=0;strokeColor=default;dashed=1;fillColor=#F7E3EE;shadow=1;strokeWidth=1;" parent="1" vertex="1">
          <mxGeometry x="274" y="460" width="174" height="74" as="geometry" />
        </mxCell>
        <mxCell id="hqVNRMzppCiJ99_KFiAW-60" value="" style="rounded=1;whiteSpace=wrap;html=1;fillColor=#e1d5e7;strokeColor=#9673a6;gradientColor=#756F78;shadow=1;" parent="1" vertex="1">
          <mxGeometry x="281" y="472" width="62" height="40" as="geometry" />
        </mxCell>
        <mxCell id="hqVNRMzppCiJ99_KFiAW-61" value="" style="shape=cylinder3;whiteSpace=wrap;html=1;boundedLbl=1;backgroundOutline=1;size=15;rounded=0;fillColor=#f5f5f5;strokeColor=#666666;gradientColor=#b3b3b3;" parent="1" vertex="1">
          <mxGeometry x="391" y="465" width="41" height="58" as="geometry" />
        </mxCell>
        <mxCell id="hqVNRMzppCiJ99_KFiAW-62" value="" style="rounded=1;whiteSpace=wrap;html=1;fillColor=#e1d5e7;strokeColor=#9673a6;gradientColor=#756F78;shadow=1;" parent="1" vertex="1">
          <mxGeometry x="286" y="476" width="67" height="42" as="geometry" />
        </mxCell>
        <mxCell id="hqVNRMzppCiJ99_KFiAW-63" value="Payment&lt;div&gt;&lt;span style=&quot;background-color: initial;&quot;&gt;Service&lt;/span&gt;&lt;/div&gt;" style="rounded=1;whiteSpace=wrap;html=1;fillColor=#e1d5e7;strokeColor=#9673a6;gradientColor=#756F78;shadow=1;fontStyle=1" parent="1" vertex="1">
          <mxGeometry x="291" y="480" width="70" height="42" as="geometry" />
        </mxCell>
        <mxCell id="hqVNRMzppCiJ99_KFiAW-64" value="SQL" style="shape=cylinder3;whiteSpace=wrap;html=1;boundedLbl=1;backgroundOutline=1;size=15;rounded=0;fillColor=#f5f5f5;strokeColor=#666666;gradientColor=#b3b3b3;fontStyle=1" parent="1" vertex="1">
          <mxGeometry x="396" y="473" width="41" height="55" as="geometry" />
        </mxCell>
        <mxCell id="hqVNRMzppCiJ99_KFiAW-73" style="edgeStyle=orthogonalEdgeStyle;rounded=0;orthogonalLoop=1;jettySize=auto;html=1;exitX=1;exitY=0.5;exitDx=0;exitDy=0;entryX=0;entryY=0.5;entryDx=0;entryDy=0;entryPerimeter=0;dashed=1;dashPattern=1 1;" parent="1" source="hqVNRMzppCiJ99_KFiAW-63" target="hqVNRMzppCiJ99_KFiAW-64" edge="1">
          <mxGeometry relative="1" as="geometry" />
        </mxCell>
        <mxCell id="P7hO2bbnkR11tL--QpdS-61" style="edgeStyle=orthogonalEdgeStyle;rounded=0;orthogonalLoop=1;jettySize=auto;html=1;exitX=0.5;exitY=0;exitDx=0;exitDy=0;entryX=1;entryY=0.5;entryDx=0;entryDy=0;strokeColor=#B20000;strokeWidth=2;dashed=1;" parent="1" source="hqVNRMzppCiJ99_KFiAW-74" target="P7hO2bbnkR11tL--QpdS-42" edge="1">
          <mxGeometry relative="1" as="geometry" />
        </mxCell>
        <mxCell id="hqVNRMzppCiJ99_KFiAW-74" value="" style="rounded=1;whiteSpace=wrap;html=1;textShadow=0;strokeColor=default;dashed=1;fillColor=#F7E3EE;shadow=1;strokeWidth=1;" parent="1" vertex="1">
          <mxGeometry x="272" y="609" width="178" height="73" as="geometry" />
        </mxCell>
        <mxCell id="hqVNRMzppCiJ99_KFiAW-75" value="" style="rounded=1;whiteSpace=wrap;html=1;fillColor=#E6FFCC;strokeColor=#2D7600;gradientColor=#636363;shadow=1;" parent="1" vertex="1">
          <mxGeometry x="278" y="622" width="65" height="38" as="geometry" />
        </mxCell>
        <mxCell id="hqVNRMzppCiJ99_KFiAW-76" value="" style="shape=cylinder3;whiteSpace=wrap;html=1;boundedLbl=1;backgroundOutline=1;size=15;rounded=0;fillColor=#f5f5f5;strokeColor=#666666;gradientColor=#b3b3b3;" parent="1" vertex="1">
          <mxGeometry x="395" y="616" width="44" height="58" as="geometry" />
        </mxCell>
        <mxCell id="hqVNRMzppCiJ99_KFiAW-77" value="" style="rounded=1;whiteSpace=wrap;html=1;fillColor=#E6FFCC;strokeColor=#2D7600;fontColor=#ffffff;gradientColor=#636363;shadow=1;" parent="1" vertex="1">
          <mxGeometry x="283" y="627" width="67" height="35" as="geometry" />
        </mxCell>
        <mxCell id="hqVNRMzppCiJ99_KFiAW-78" value="User&lt;div&gt;&lt;span style=&quot;background-color: initial;&quot;&gt;Service&lt;/span&gt;&lt;/div&gt;" style="rounded=1;whiteSpace=wrap;html=1;fillColor=#E6FFCC;strokeColor=#2D7600;fontColor=#000000;gradientColor=#636363;shadow=1;fontStyle=1" parent="1" vertex="1">
          <mxGeometry x="288" y="632" width="69" height="36" as="geometry" />
        </mxCell>
        <mxCell id="hqVNRMzppCiJ99_KFiAW-79" value="SQL" style="shape=cylinder3;whiteSpace=wrap;html=1;boundedLbl=1;backgroundOutline=1;size=15;rounded=0;fillColor=#f5f5f5;strokeColor=#666666;gradientColor=#b3b3b3;fontStyle=1" parent="1" vertex="1">
          <mxGeometry x="401" y="622" width="41" height="56" as="geometry" />
        </mxCell>
        <mxCell id="hqVNRMzppCiJ99_KFiAW-83" value="" style="rounded=1;whiteSpace=wrap;html=1;textShadow=0;strokeColor=default;dashed=1;fillColor=#F7E3EE;shadow=1;strokeWidth=1;" parent="1" vertex="1">
          <mxGeometry x="548" y="462" width="192" height="73" as="geometry" />
        </mxCell>
        <mxCell id="hqVNRMzppCiJ99_KFiAW-84" value="" style="rounded=1;whiteSpace=wrap;html=1;fillColor=#fad9d5;strokeColor=#ae4132;gradientColor=#EA6B66;shadow=1;" parent="1" vertex="1">
          <mxGeometry x="555" y="472" width="77" height="44" as="geometry" />
        </mxCell>
        <mxCell id="hqVNRMzppCiJ99_KFiAW-85" value="" style="shape=cylinder3;whiteSpace=wrap;html=1;boundedLbl=1;backgroundOutline=1;size=15;rounded=0;fillColor=#f5f5f5;strokeColor=#666666;gradientColor=#b3b3b3;" parent="1" vertex="1">
          <mxGeometry x="680" y="468" width="46" height="55" as="geometry" />
        </mxCell>
        <mxCell id="hqVNRMzppCiJ99_KFiAW-86" value="" style="rounded=1;whiteSpace=wrap;html=1;fillColor=#fad9d5;strokeColor=#ae4132;gradientColor=#EA6B66;shadow=1;" parent="1" vertex="1">
          <mxGeometry x="560" y="477" width="76" height="41" as="geometry" />
        </mxCell>
        <mxCell id="hqVNRMzppCiJ99_KFiAW-87" value="Shipping&lt;div&gt;&lt;span style=&quot;background-color: initial;&quot;&gt;Service&lt;/span&gt;&lt;/div&gt;" style="rounded=1;whiteSpace=wrap;html=1;fillColor=#fad9d5;strokeColor=#ae4132;gradientColor=#EA6B66;shadow=1;fontStyle=1" parent="1" vertex="1">
          <mxGeometry x="566" y="482" width="73" height="38" as="geometry" />
        </mxCell>
        <mxCell id="hqVNRMzppCiJ99_KFiAW-88" value="SQL" style="shape=cylinder3;whiteSpace=wrap;html=1;boundedLbl=1;backgroundOutline=1;size=15;rounded=0;fillColor=#f5f5f5;strokeColor=#666666;gradientColor=#b3b3b3;fontStyle=1" parent="1" vertex="1">
          <mxGeometry x="686" y="472" width="42" height="58" as="geometry" />
        </mxCell>
        <mxCell id="hqVNRMzppCiJ99_KFiAW-94" style="edgeStyle=orthogonalEdgeStyle;rounded=0;orthogonalLoop=1;jettySize=auto;html=1;exitX=1;exitY=0.5;exitDx=0;exitDy=0;entryX=0;entryY=0.5;entryDx=0;entryDy=0;entryPerimeter=0;dashed=1;dashPattern=1 1;" parent="1" source="hqVNRMzppCiJ99_KFiAW-87" target="hqVNRMzppCiJ99_KFiAW-88" edge="1">
          <mxGeometry relative="1" as="geometry" />
        </mxCell>
        <mxCell id="hqVNRMzppCiJ99_KFiAW-95" style="edgeStyle=orthogonalEdgeStyle;rounded=0;orthogonalLoop=1;jettySize=auto;html=1;exitX=1;exitY=0.5;exitDx=0;exitDy=0;entryX=0;entryY=0.5;entryDx=0;entryDy=0;entryPerimeter=0;dashed=1;dashPattern=1 1;" parent="1" source="hqVNRMzppCiJ99_KFiAW-78" target="hqVNRMzppCiJ99_KFiAW-79" edge="1">
          <mxGeometry relative="1" as="geometry" />
        </mxCell>
        <mxCell id="KnMCrY_Kx2zRuAthfWW4-8" style="edgeStyle=orthogonalEdgeStyle;rounded=0;orthogonalLoop=1;jettySize=auto;html=1;exitX=1;exitY=0.5;exitDx=0;exitDy=0;entryX=0.5;entryY=1;entryDx=0;entryDy=0;strokeColor=#B20000;fontStyle=1;strokeWidth=2;dashed=1;" parent="1" source="hqVNRMzppCiJ99_KFiAW-97" target="P7hO2bbnkR11tL--QpdS-1" edge="1">
          <mxGeometry relative="1" as="geometry" />
        </mxCell>
        <mxCell id="hqVNRMzppCiJ99_KFiAW-97" value="" style="rounded=1;whiteSpace=wrap;html=1;textShadow=0;strokeColor=default;dashed=1;fillColor=#F7E3EE;shadow=1;strokeWidth=1;" parent="1" vertex="1">
          <mxGeometry x="538" y="42" width="182" height="74" as="geometry" />
        </mxCell>
        <mxCell id="hqVNRMzppCiJ99_KFiAW-98" value="" style="rounded=1;whiteSpace=wrap;html=1;fillColor=#e6d0de;gradientColor=#d5739d;strokeColor=#996185;" parent="1" vertex="1">
          <mxGeometry x="544.25" y="53" width="65.75" height="38" as="geometry" />
        </mxCell>
        <mxCell id="hqVNRMzppCiJ99_KFiAW-99" value="NoSQL&amp;nbsp;" style="shape=cylinder3;whiteSpace=wrap;html=1;boundedLbl=1;backgroundOutline=1;size=15;rounded=0;fillColor=#fad7ac;strokeColor=#b46504;" parent="1" vertex="1">
          <mxGeometry x="650" y="49" width="50" height="58" as="geometry" />
        </mxCell>
        <mxCell id="hqVNRMzppCiJ99_KFiAW-100" value="" style="rounded=1;whiteSpace=wrap;html=1;fillColor=#e6d0de;gradientColor=#d5739d;strokeColor=#996185;" parent="1" vertex="1">
          <mxGeometry x="548.25" y="58" width="69.75" height="40" as="geometry" />
        </mxCell>
        <mxCell id="hqVNRMzppCiJ99_KFiAW-101" value="Product&lt;div&gt;&lt;span style=&quot;background-color: initial;&quot;&gt;Service&lt;/span&gt;&lt;/div&gt;" style="rounded=1;whiteSpace=wrap;html=1;fillColor=#e6d0de;gradientColor=#d5739d;strokeColor=#996185;fontStyle=1" parent="1" vertex="1">
          <mxGeometry x="553.25" y="63" width="69.75" height="38" as="geometry" />
        </mxCell>
        <mxCell id="hqVNRMzppCiJ99_KFiAW-102" value="&lt;div&gt;NoSQL&amp;nbsp;&lt;/div&gt;" style="shape=cylinder3;whiteSpace=wrap;html=1;boundedLbl=1;backgroundOutline=1;size=15;rounded=0;fillColor=#fad7ac;strokeColor=#b46504;fontStyle=1" parent="1" vertex="1">
          <mxGeometry x="655.25" y="54" width="47.75" height="57" as="geometry" />
        </mxCell>
        <mxCell id="hqVNRMzppCiJ99_KFiAW-106" style="edgeStyle=orthogonalEdgeStyle;rounded=0;orthogonalLoop=1;jettySize=auto;html=1;exitX=1;exitY=0.5;exitDx=0;exitDy=0;entryX=0;entryY=0.5;entryDx=0;entryDy=0;entryPerimeter=0;dashed=1;dashPattern=1 1;" parent="1" source="hqVNRMzppCiJ99_KFiAW-101" target="hqVNRMzppCiJ99_KFiAW-102" edge="1">
          <mxGeometry relative="1" as="geometry" />
        </mxCell>
        <mxCell id="hqVNRMzppCiJ99_KFiAW-109" value="Sync Products" style="text;html=1;align=center;verticalAlign=middle;resizable=0;points=[];autosize=1;strokeColor=none;fillColor=none;fontSize=11;rounded=0;rotation=0;fontStyle=1" parent="1" vertex="1">
          <mxGeometry x="555.5" y="114.5" width="89" height="25" as="geometry" />
        </mxCell>
        <mxCell id="hqVNRMzppCiJ99_KFiAW-152" value="Update&lt;div&gt;&lt;span style=&quot;background-color: initial;&quot;&gt;&amp;nbsp;&lt;/span&gt;&lt;span style=&quot;background-color: initial;&quot;&gt;Products&lt;/span&gt;&lt;/div&gt;" style="text;html=1;align=center;verticalAlign=middle;resizable=0;points=[];autosize=1;strokeColor=none;fillColor=none;fontSize=11;rounded=0;rotation=0;fontStyle=1" parent="1" vertex="1">
          <mxGeometry x="762" y="80" width="64" height="38" as="geometry" />
        </mxCell>
        <mxCell id="hqVNRMzppCiJ99_KFiAW-160" value="Update Payment Url/&amp;nbsp;&lt;span style=&quot;background-color: initial;&quot;&gt;Status&lt;/span&gt;" style="text;html=1;align=center;verticalAlign=middle;resizable=0;points=[];autosize=1;strokeColor=none;fillColor=none;fontSize=11;rounded=0;rotation=0;fontStyle=1" parent="1" vertex="1">
          <mxGeometry x="521" y="404.5" width="154" height="25" as="geometry" />
        </mxCell>
        <mxCell id="hqVNRMzppCiJ99_KFiAW-162" value="Order Created&amp;nbsp;&lt;div&gt;&amp;nbsp;Initiate Payment&lt;/div&gt;" style="text;html=1;align=center;verticalAlign=middle;resizable=0;points=[];autosize=1;strokeColor=none;fillColor=none;fontSize=11;rounded=0;rotation=0;fontStyle=1" parent="1" vertex="1">
          <mxGeometry x="927" y="392" width="100" height="38" as="geometry" />
        </mxCell>
        <mxCell id="hqVNRMzppCiJ99_KFiAW-165" value="Ship&amp;nbsp;&lt;span style=&quot;background-color: initial;&quot;&gt;Order&lt;/span&gt;" style="text;html=1;align=center;verticalAlign=middle;resizable=0;points=[];autosize=1;strokeColor=none;fillColor=none;fontSize=11;rounded=0;rotation=0;fontStyle=1" parent="1" vertex="1">
          <mxGeometry x="789" y="465" width="71" height="25" as="geometry" />
        </mxCell>
        <mxCell id="hqVNRMzppCiJ99_KFiAW-209" value="Check&lt;div style=&quot;font-size: 11px;&quot;&gt;&amp;nbsp;&lt;span style=&quot;background-color: initial; font-size: 11px;&quot;&gt;Inventory&lt;/span&gt;&lt;/div&gt;" style="text;html=1;align=center;verticalAlign=middle;resizable=0;points=[];autosize=1;strokeColor=none;fillColor=none;fontSize=11;rounded=0;rotation=0;fontStyle=1" parent="1" vertex="1">
          <mxGeometry x="460" y="165.5" width="66" height="38" as="geometry" />
        </mxCell>
        <mxCell id="3KepqCRreSBxK8r_iUo3-3" style="edgeStyle=orthogonalEdgeStyle;rounded=0;orthogonalLoop=1;jettySize=auto;html=1;entryX=0;entryY=0.5;entryDx=0;entryDy=0;strokeColor=#005700;fontStyle=0;strokeWidth=2;" parent="1" source="98wAxy-DsdHwi_wowS8c-1" target="3KepqCRreSBxK8r_iUo3-1" edge="1">
          <mxGeometry relative="1" as="geometry">
            <mxPoint x="-192" y="361.5" as="sourcePoint" />
          </mxGeometry>
        </mxCell>
        <mxCell id="Z5AxZRiR1ccud-SpPowU-11" style="edgeStyle=orthogonalEdgeStyle;rounded=0;orthogonalLoop=1;jettySize=auto;html=1;exitX=1.002;exitY=0.496;exitDx=0;exitDy=0;entryX=0.5;entryY=1;entryDx=0;entryDy=0;strokeWidth=2;strokeColor=#005700;exitPerimeter=0;" parent="1" source="98wAxy-DsdHwi_wowS8c-1" target="OpT-MC_qUvA9qBk__BMZ-7" edge="1">
          <mxGeometry relative="1" as="geometry">
            <mxPoint x="-200.78679656440352" y="340.28679656440363" as="sourcePoint" />
          </mxGeometry>
        </mxCell>
        <mxCell id="Z5AxZRiR1ccud-SpPowU-15" style="edgeStyle=orthogonalEdgeStyle;rounded=0;orthogonalLoop=1;jettySize=auto;html=1;entryX=0;entryY=0.75;entryDx=0;entryDy=0;strokeColor=#851B85;strokeWidth=2;" parent="1" source="98wAxy-DsdHwi_wowS8c-1" target="uyhA110zfRlWLcyk9HhF-11" edge="1">
          <mxGeometry relative="1" as="geometry">
            <Array as="points">
              <mxPoint x="-223" y="548" />
              <mxPoint x="-103" y="548" />
            </Array>
            <mxPoint x="-222" y="410" as="sourcePoint" />
          </mxGeometry>
        </mxCell>
        <mxCell id="KnMCrY_Kx2zRuAthfWW4-51" style="edgeStyle=orthogonalEdgeStyle;rounded=0;orthogonalLoop=1;jettySize=auto;html=1;exitX=1;exitY=0.5;exitDx=0;exitDy=0;entryX=1;entryY=0.5;entryDx=0;entryDy=0;strokeColor=#005700;fontStyle=1;strokeWidth=2;" parent="1" source="3KepqCRreSBxK8r_iUo3-1" target="3KepqCRreSBxK8r_iUo3-4" edge="1">
          <mxGeometry relative="1" as="geometry" />
        </mxCell>
        <mxCell id="3KepqCRreSBxK8r_iUo3-1" value="" style="rounded=1;whiteSpace=wrap;html=1;fillColor=#FFCCFF;strokeColor=#695469;shadow=1;fontSize=9;gradientColor=#786078;strokeWidth=2;" parent="1" vertex="1">
          <mxGeometry x="-64" y="231" width="105" height="260" as="geometry" />
        </mxCell>
        <mxCell id="KnMCrY_Kx2zRuAthfWW4-31" style="edgeStyle=orthogonalEdgeStyle;rounded=0;orthogonalLoop=1;jettySize=auto;html=1;exitX=0;exitY=0.75;exitDx=0;exitDy=0;strokeColor=#005700;fontStyle=1;strokeWidth=2;" parent="1" source="3KepqCRreSBxK8r_iUo3-4" target="KnMCrY_Kx2zRuAthfWW4-21" edge="1">
          <mxGeometry relative="1" as="geometry">
            <Array as="points">
              <mxPoint x="197" y="271" />
              <mxPoint x="197" y="222" />
            </Array>
          </mxGeometry>
        </mxCell>
        <mxCell id="3KepqCRreSBxK8r_iUo3-4" value="&lt;font style=&quot;font-size: 13px;&quot;&gt;ALB&lt;/font&gt;" style="rounded=1;whiteSpace=wrap;html=1;direction=west;fillColor=#f8cecc;strokeColor=#B09291;shadow=1;gradientColor=none;gradientDirection=north;fontStyle=1;fontSize=13;strokeWidth=2;" parent="1" vertex="1">
          <mxGeometry x="123" y="180" width="46" height="316" as="geometry" />
        </mxCell>
        <mxCell id="KnMCrY_Kx2zRuAthfWW4-1" value="" style="rounded=1;whiteSpace=wrap;html=1;textShadow=0;strokeColor=default;dashed=1;fillColor=#F7E3EE;shadow=1;strokeWidth=1;" parent="1" vertex="1">
          <mxGeometry x="491" y="612" width="101" height="68" as="geometry" />
        </mxCell>
        <mxCell id="KnMCrY_Kx2zRuAthfWW4-2" value="" style="rounded=1;whiteSpace=wrap;html=1;fillColor=#CAF1DE;strokeColor=#4B5952;fontColor=#000000;gradientColor=#64786E;gradientDirection=south;shadow=1;" parent="1" vertex="1">
          <mxGeometry x="498.25" y="622" width="67.75" height="39" as="geometry" />
        </mxCell>
        <mxCell id="KnMCrY_Kx2zRuAthfWW4-3" value="" style="rounded=1;whiteSpace=wrap;html=1;fillColor=#CAF1DE;strokeColor=#4B5952;fontColor=#000000;gradientColor=#64786E;gradientDirection=south;shadow=1;" parent="1" vertex="1">
          <mxGeometry x="503" y="628" width="70" height="40" as="geometry" />
        </mxCell>
        <mxCell id="KnMCrY_Kx2zRuAthfWW4-4" value="Notification&lt;div&gt;Service&lt;/div&gt;" style="rounded=1;whiteSpace=wrap;html=1;fillColor=#CAF1DE;strokeColor=#4B5952;fontColor=#000000;gradientColor=#64786E;gradientDirection=south;shadow=1;fontStyle=1" parent="1" vertex="1">
          <mxGeometry x="508" y="634" width="70" height="36" as="geometry" />
        </mxCell>
        <mxCell id="KnMCrY_Kx2zRuAthfWW4-16" value="" style="verticalLabelPosition=bottom;verticalAlign=top;html=1;shape=mxgraph.basic.half_circle;direction=south;fillColor=#A96E6E;gradientColor=none;" parent="1" vertex="1">
          <mxGeometry x="256" y="54" width="15" height="51" as="geometry" />
        </mxCell>
        <mxCell id="KnMCrY_Kx2zRuAthfWW4-17" style="rounded=0;orthogonalLoop=1;jettySize=auto;html=1;exitX=1;exitY=0.5;exitDx=0;exitDy=0;entryX=0.75;entryY=1;entryDx=0;entryDy=0;strokeColor=#B20000;edgeStyle=orthogonalEdgeStyle;fontStyle=1;strokeWidth=2;dashed=1;" parent="1" source="P7hO2bbnkR11tL--QpdS-1" edge="1">
          <mxGeometry relative="1" as="geometry">
            <mxPoint x="770" y="150" as="sourcePoint" />
            <mxPoint x="407.75" y="116" as="targetPoint" />
            <Array as="points">
              <mxPoint x="835" y="137" />
              <mxPoint x="408" y="137" />
            </Array>
          </mxGeometry>
        </mxCell>
        <mxCell id="KnMCrY_Kx2zRuAthfWW4-18" style="edgeStyle=orthogonalEdgeStyle;rounded=0;orthogonalLoop=1;jettySize=auto;html=1;exitX=0.5;exitY=1;exitDx=0;exitDy=0;entryX=0.5;entryY=1;entryDx=0;entryDy=0;entryPerimeter=0;strokeColor=#005700;fontStyle=1;strokeWidth=2;" parent="1" source="3KepqCRreSBxK8r_iUo3-4" target="KnMCrY_Kx2zRuAthfWW4-16" edge="1">
          <mxGeometry relative="1" as="geometry">
            <Array as="points">
              <mxPoint x="146" y="80" />
            </Array>
          </mxGeometry>
        </mxCell>
        <mxCell id="KnMCrY_Kx2zRuAthfWW4-19" value="" style="verticalLabelPosition=bottom;verticalAlign=top;html=1;shape=mxgraph.basic.half_circle;direction=south;fillColor=#A96E6E;gradientColor=none;" parent="1" vertex="1">
          <mxGeometry x="522" y="56.5" width="15" height="51" as="geometry" />
        </mxCell>
        <mxCell id="KnMCrY_Kx2zRuAthfWW4-20" style="edgeStyle=orthogonalEdgeStyle;rounded=0;orthogonalLoop=1;jettySize=auto;html=1;exitX=0;exitY=0.75;exitDx=0;exitDy=0;entryX=0.5;entryY=1;entryDx=0;entryDy=0;entryPerimeter=0;strokeColor=#005700;fontStyle=1;strokeWidth=2;" parent="1" source="3KepqCRreSBxK8r_iUo3-4" target="KnMCrY_Kx2zRuAthfWW4-19" edge="1">
          <mxGeometry relative="1" as="geometry">
            <Array as="points">
              <mxPoint x="169" y="271" />
              <mxPoint x="185" y="271" />
              <mxPoint x="185" y="148" />
              <mxPoint x="483" y="148" />
              <mxPoint x="483" y="82" />
            </Array>
          </mxGeometry>
        </mxCell>
        <mxCell id="KnMCrY_Kx2zRuAthfWW4-21" value="" style="verticalLabelPosition=bottom;verticalAlign=top;html=1;shape=mxgraph.basic.half_circle;direction=south;fillColor=#A96E6E;gradientColor=none;" parent="1" vertex="1">
          <mxGeometry x="259" y="193" width="15" height="51" as="geometry" />
        </mxCell>
        <mxCell id="KnMCrY_Kx2zRuAthfWW4-22" value="" style="verticalLabelPosition=bottom;verticalAlign=top;html=1;shape=mxgraph.basic.half_circle;direction=south;fillColor=#A96E6E;gradientColor=none;" parent="1" vertex="1">
          <mxGeometry x="525" y="188" width="15" height="51" as="geometry" />
        </mxCell>
        <mxCell id="KnMCrY_Kx2zRuAthfWW4-24" style="edgeStyle=orthogonalEdgeStyle;rounded=0;orthogonalLoop=1;jettySize=auto;html=1;exitX=0.994;exitY=0.311;exitDx=0;exitDy=0;strokeColor=#7D6A00;strokeWidth=2;entryX=0.596;entryY=0.056;entryDx=0;entryDy=0;entryPerimeter=0;exitPerimeter=0;" parent="1" source="hqVNRMzppCiJ99_KFiAW-30" target="KnMCrY_Kx2zRuAthfWW4-61" edge="1">
          <mxGeometry relative="1" as="geometry">
            <Array as="points" />
            <mxPoint x="449" y="176" as="sourcePoint" />
            <mxPoint x="528.6599999999999" y="173.3130000000001" as="targetPoint" />
          </mxGeometry>
        </mxCell>
        <mxCell id="KnMCrY_Kx2zRuAthfWW4-25" value="" style="verticalLabelPosition=bottom;verticalAlign=top;html=1;shape=mxgraph.basic.half_circle;direction=south;fillColor=#A96E6E;gradientColor=none;" parent="1" vertex="1">
          <mxGeometry x="256" y="331" width="15" height="51" as="geometry" />
        </mxCell>
        <mxCell id="KnMCrY_Kx2zRuAthfWW4-26" value="" style="verticalLabelPosition=bottom;verticalAlign=top;html=1;shape=mxgraph.basic.half_circle;direction=south;fillColor=#A96E6E;gradientColor=none;" parent="1" vertex="1">
          <mxGeometry x="530" y="336" width="15" height="51" as="geometry" />
        </mxCell>
        <mxCell id="KnMCrY_Kx2zRuAthfWW4-27" value="" style="verticalLabelPosition=bottom;verticalAlign=top;html=1;shape=mxgraph.basic.half_circle;direction=south;fillColor=#A96E6E;gradientColor=none;" parent="1" vertex="1">
          <mxGeometry x="258" y="473" width="15" height="51" as="geometry" />
        </mxCell>
        <mxCell id="KnMCrY_Kx2zRuAthfWW4-28" value="" style="verticalLabelPosition=bottom;verticalAlign=top;html=1;shape=mxgraph.basic.half_circle;direction=south;fillColor=#A96E6E;gradientColor=none;" parent="1" vertex="1">
          <mxGeometry x="533" y="473" width="15" height="51" as="geometry" />
        </mxCell>
        <mxCell id="KnMCrY_Kx2zRuAthfWW4-29" value="" style="verticalLabelPosition=bottom;verticalAlign=top;html=1;shape=mxgraph.basic.half_circle;direction=south;fillColor=#A96E6E;gradientColor=none;" parent="1" vertex="1">
          <mxGeometry x="257" y="619" width="15" height="51" as="geometry" />
        </mxCell>
        <mxCell id="KnMCrY_Kx2zRuAthfWW4-30" value="" style="verticalLabelPosition=bottom;verticalAlign=top;html=1;shape=mxgraph.basic.half_circle;direction=south;fillColor=#A96E6E;gradientColor=none;" parent="1" vertex="1">
          <mxGeometry x="476" y="621" width="15" height="51" as="geometry" />
        </mxCell>
        <mxCell id="KnMCrY_Kx2zRuAthfWW4-32" style="edgeStyle=orthogonalEdgeStyle;rounded=0;orthogonalLoop=1;jettySize=auto;html=1;exitX=0;exitY=0.75;exitDx=0;exitDy=0;entryX=0.388;entryY=0.056;entryDx=0;entryDy=0;entryPerimeter=0;strokeColor=#005700;fontStyle=1;strokeWidth=2;" parent="1" target="KnMCrY_Kx2zRuAthfWW4-61" edge="1">
          <mxGeometry relative="1" as="geometry">
            <mxPoint x="170" y="270.75" as="sourcePoint" />
            <mxPoint x="518" y="217.5" as="targetPoint" />
            <Array as="points">
              <mxPoint x="503" y="271" />
              <mxPoint x="503" y="219" />
            </Array>
          </mxGeometry>
        </mxCell>
        <mxCell id="KnMCrY_Kx2zRuAthfWW4-33" style="edgeStyle=orthogonalEdgeStyle;rounded=0;orthogonalLoop=1;jettySize=auto;html=1;exitX=0;exitY=0.5;exitDx=0;exitDy=0;entryX=0.588;entryY=0.881;entryDx=0;entryDy=0;entryPerimeter=0;strokeColor=#005700;fontStyle=1;strokeWidth=2;" parent="1" source="3KepqCRreSBxK8r_iUo3-4" target="KnMCrY_Kx2zRuAthfWW4-25" edge="1">
          <mxGeometry relative="1" as="geometry" />
        </mxCell>
        <mxCell id="KnMCrY_Kx2zRuAthfWW4-34" style="edgeStyle=orthogonalEdgeStyle;rounded=0;orthogonalLoop=1;jettySize=auto;html=1;exitX=0;exitY=0.25;exitDx=0;exitDy=0;entryX=0.5;entryY=1;entryDx=0;entryDy=0;entryPerimeter=0;strokeColor=#005700;strokeWidth=2;" parent="1" source="3KepqCRreSBxK8r_iUo3-4" target="KnMCrY_Kx2zRuAthfWW4-27" edge="1">
          <mxGeometry relative="1" as="geometry">
            <Array as="points">
              <mxPoint x="169" y="464" />
              <mxPoint x="216" y="464" />
              <mxPoint x="216" y="499" />
            </Array>
          </mxGeometry>
        </mxCell>
        <mxCell id="KnMCrY_Kx2zRuAthfWW4-35" style="edgeStyle=orthogonalEdgeStyle;rounded=0;orthogonalLoop=1;jettySize=auto;html=1;exitX=0;exitY=0.25;exitDx=0;exitDy=0;entryX=0.5;entryY=1;entryDx=0;entryDy=0;entryPerimeter=0;strokeColor=#005700;fontStyle=1;strokeWidth=2;" parent="1" source="3KepqCRreSBxK8r_iUo3-4" target="KnMCrY_Kx2zRuAthfWW4-28" edge="1">
          <mxGeometry relative="1" as="geometry">
            <Array as="points">
              <mxPoint x="169" y="464" />
              <mxPoint x="207" y="464" />
              <mxPoint x="207" y="445" />
              <mxPoint x="495" y="445" />
              <mxPoint x="495" y="499" />
            </Array>
          </mxGeometry>
        </mxCell>
        <mxCell id="KnMCrY_Kx2zRuAthfWW4-36" style="edgeStyle=orthogonalEdgeStyle;rounded=0;orthogonalLoop=1;jettySize=auto;html=1;exitX=0;exitY=0.25;exitDx=0;exitDy=0;entryX=0.5;entryY=1;entryDx=0;entryDy=0;entryPerimeter=0;strokeColor=#005700;fontStyle=1;strokeWidth=2;" parent="1" source="3KepqCRreSBxK8r_iUo3-4" target="KnMCrY_Kx2zRuAthfWW4-26" edge="1">
          <mxGeometry relative="1" as="geometry">
            <Array as="points">
              <mxPoint x="169" y="464" />
              <mxPoint x="194" y="464" />
              <mxPoint x="194" y="404" />
              <mxPoint x="502" y="404" />
              <mxPoint x="502" y="362" />
            </Array>
          </mxGeometry>
        </mxCell>
        <mxCell id="KnMCrY_Kx2zRuAthfWW4-37" style="edgeStyle=orthogonalEdgeStyle;rounded=0;orthogonalLoop=1;jettySize=auto;html=1;exitX=0;exitY=0.25;exitDx=0;exitDy=0;entryX=0.5;entryY=1;entryDx=0;entryDy=0;entryPerimeter=0;strokeColor=#005700;fontStyle=1;strokeWidth=2;" parent="1" source="3KepqCRreSBxK8r_iUo3-4" target="KnMCrY_Kx2zRuAthfWW4-29" edge="1">
          <mxGeometry relative="1" as="geometry">
            <Array as="points">
              <mxPoint x="169" y="464" />
              <mxPoint x="200" y="464" />
              <mxPoint x="200" y="645" />
            </Array>
          </mxGeometry>
        </mxCell>
        <mxCell id="KnMCrY_Kx2zRuAthfWW4-58" value="ILBS" style="text;html=1;align=center;verticalAlign=middle;resizable=0;points=[];autosize=1;strokeColor=none;fillColor=none;fontSize=10;rotation=270;fontStyle=1;fontColor=#FFFFFF;" parent="1" vertex="1">
          <mxGeometry x="244.5" y="69.5" width="40" height="24" as="geometry" />
        </mxCell>
        <mxCell id="KnMCrY_Kx2zRuAthfWW4-59" value="ILBS" style="text;html=1;align=center;verticalAlign=middle;resizable=0;points=[];autosize=1;strokeColor=none;fillColor=none;fontSize=10;rotation=270;fontStyle=1;fontColor=#FFFFFF;" parent="1" vertex="1">
          <mxGeometry x="512" y="70.5" width="40" height="24" as="geometry" />
        </mxCell>
        <mxCell id="KnMCrY_Kx2zRuAthfWW4-60" value="ILBS" style="text;html=1;align=center;verticalAlign=middle;resizable=0;points=[];autosize=1;strokeColor=none;fillColor=none;fontSize=10;rotation=270;fontStyle=1;fontColor=#FFFFFF;" parent="1" vertex="1">
          <mxGeometry x="247" y="208.5" width="40" height="24" as="geometry" />
        </mxCell>
        <mxCell id="KnMCrY_Kx2zRuAthfWW4-61" value="ILBS" style="text;html=1;align=center;verticalAlign=middle;resizable=0;points=[];autosize=1;strokeColor=none;fillColor=none;fontSize=10;rotation=270;fontStyle=1;fontColor=#FFFFFF;" parent="1" vertex="1">
          <mxGeometry x="515" y="202" width="40" height="24" as="geometry" />
        </mxCell>
        <mxCell id="KnMCrY_Kx2zRuAthfWW4-62" value="ILBS" style="text;html=1;align=center;verticalAlign=middle;resizable=0;points=[];autosize=1;strokeColor=none;fillColor=none;fontSize=10;rotation=270;fontStyle=1;fontColor=#FFFFFF;" parent="1" vertex="1">
          <mxGeometry x="244.5" y="348.5" width="40" height="24" as="geometry" />
        </mxCell>
        <mxCell id="KnMCrY_Kx2zRuAthfWW4-63" value="ILBS" style="text;html=1;align=center;verticalAlign=middle;resizable=0;points=[];autosize=1;strokeColor=none;fillColor=none;fontSize=10;rotation=270;fontStyle=1;fontColor=#FFFFFF;" parent="1" vertex="1">
          <mxGeometry x="518" y="351.5" width="40" height="24" as="geometry" />
        </mxCell>
        <mxCell id="KnMCrY_Kx2zRuAthfWW4-64" value="ILBS" style="text;html=1;align=center;verticalAlign=middle;resizable=0;points=[];autosize=1;strokeColor=none;fillColor=none;fontSize=10;rotation=270;fontStyle=1;fontColor=#FFFFFF;" parent="1" vertex="1">
          <mxGeometry x="245.75" y="488.5" width="40" height="24" as="geometry" />
        </mxCell>
        <mxCell id="KnMCrY_Kx2zRuAthfWW4-65" value="ILBS" style="text;html=1;align=center;verticalAlign=middle;resizable=0;points=[];autosize=1;strokeColor=none;fillColor=none;fontSize=10;rotation=270;fontStyle=1;fontColor=#FFFFFF;" parent="1" vertex="1">
          <mxGeometry x="522" y="486" width="40" height="24" as="geometry" />
        </mxCell>
        <mxCell id="KnMCrY_Kx2zRuAthfWW4-66" value="ILBS" style="text;html=1;align=center;verticalAlign=middle;resizable=0;points=[];autosize=1;strokeColor=none;fillColor=none;fontSize=10;rotation=270;fontStyle=1;fontColor=#FFFFFF;" parent="1" vertex="1">
          <mxGeometry x="246" y="633" width="40" height="24" as="geometry" />
        </mxCell>
        <mxCell id="KnMCrY_Kx2zRuAthfWW4-67" value="ILBS" style="text;html=1;align=center;verticalAlign=middle;resizable=0;points=[];autosize=1;strokeColor=none;fillColor=none;fontSize=10;rotation=270;fontStyle=1;fontColor=#FFFFFF;" parent="1" vertex="1">
          <mxGeometry x="465" y="636.5" width="40" height="24" as="geometry" />
        </mxCell>
        <mxCell id="KnMCrY_Kx2zRuAthfWW4-69" value="ALB -&amp;nbsp; &amp;nbsp; &amp;nbsp; &amp;nbsp; &amp;nbsp; &amp;nbsp; &amp;nbsp; &amp;nbsp; &amp;nbsp; &amp;nbsp; &amp;nbsp; &amp;nbsp; &amp;nbsp; &amp;nbsp; &amp;nbsp; &amp;nbsp; &amp;nbsp; &amp;nbsp; &amp;nbsp; &amp;nbsp; &amp;nbsp; &amp;nbsp;Application load balancer" style="text;html=1;align=center;verticalAlign=middle;resizable=0;points=[];autosize=1;strokeColor=none;fillColor=none;fontStyle=1" parent="1" vertex="1">
          <mxGeometry x="-308" y="12" width="325" height="26" as="geometry" />
        </mxCell>
        <mxCell id="KnMCrY_Kx2zRuAthfWW4-70" value="ILBS -&amp;nbsp; &amp;nbsp; &amp;nbsp; &amp;nbsp; &amp;nbsp; &amp;nbsp; &amp;nbsp; &amp;nbsp; &amp;nbsp; &amp;nbsp; &amp;nbsp; &amp;nbsp; &amp;nbsp; &amp;nbsp; &amp;nbsp; &amp;nbsp; &amp;nbsp; &amp;nbsp; &amp;nbsp; &amp;nbsp; Internal load balancing service" style="text;html=1;align=center;verticalAlign=middle;resizable=0;points=[];autosize=1;strokeColor=none;fillColor=none;fontStyle=1" parent="1" vertex="1">
          <mxGeometry x="-308" y="41" width="347" height="26" as="geometry" />
        </mxCell>
        <mxCell id="JwgxExFeMxKhF7BPWmSk-1" value="&lt;font style=&quot;font-size: 13px;&quot;&gt;&amp;nbsp; &amp;nbsp; &amp;nbsp; &amp;nbsp; Logging&amp;nbsp;&lt;/font&gt;&lt;div&gt;&lt;font style=&quot;font-size: 13px;&quot;&gt;&amp;nbsp; &amp;nbsp; &amp;nbsp; &amp;nbsp;&amp;amp; Monitoring&lt;/font&gt;&lt;/div&gt;" style="rounded=1;whiteSpace=wrap;html=1;direction=west;fillColor=#6A8585;strokeColor=#5C4C4C;shadow=1;gradientDirection=east;fontColor=#000000;gradientColor=none;fontSize=13;fontStyle=1" parent="1" vertex="1">
          <mxGeometry x="564" y="-104" width="132" height="43" as="geometry" />
        </mxCell>
        <mxCell id="JwgxExFeMxKhF7BPWmSk-36" value="A connection from&lt;span style=&quot;background-color: initial;&quot;&gt;&amp;nbsp;multiple components&lt;/span&gt;&lt;div&gt;&lt;span style=&quot;background-color: initial;&quot;&gt;&amp;nbsp;i&lt;/span&gt;&lt;span style=&quot;background-color: initial;&quot;&gt;.e.&amp;nbsp;&lt;/span&gt;&lt;span style=&quot;background-color: initial;&quot;&gt;API gateway&lt;/span&gt;&lt;span style=&quot;background-color: initial;&quot;&gt;, microservices&lt;/span&gt;&lt;/div&gt;" style="text;html=1;align=center;verticalAlign=middle;resizable=0;points=[];autosize=1;strokeColor=none;fillColor=none;fontStyle=1" parent="1" vertex="1">
          <mxGeometry x="-298" y="-119" width="227" height="41" as="geometry" />
        </mxCell>
        <mxCell id="JwgxExFeMxKhF7BPWmSk-37" value="&lt;font color=&quot;#ffffff&quot;&gt;&amp;nbsp; &amp;nbsp; &amp;nbsp; &amp;nbsp; &amp;nbsp; &amp;nbsp; Auth &amp;amp; Authz&lt;/font&gt;" style="rounded=1;whiteSpace=wrap;html=1;fillColor=#FF7AAF;fontStyle=1" parent="1" vertex="1">
          <mxGeometry x="413" y="-104" width="133" height="44" as="geometry" />
        </mxCell>
        <mxCell id="JwgxExFeMxKhF7BPWmSk-40" value="" style="sketch=0;pointerEvents=1;shadow=0;dashed=0;html=1;strokeColor=none;labelPosition=center;verticalLabelPosition=bottom;verticalAlign=top;align=center;fillColor=#505050;shape=mxgraph.mscae.oms.log_search" parent="1" vertex="1">
          <mxGeometry x="565.5" y="-99.5" width="35" height="35" as="geometry" />
        </mxCell>
        <mxCell id="urqGO7AWTMC_Ui9AjQ2h-4" value="&lt;span style=&quot;font-size: 11px;&quot;&gt;https://mcart.com&lt;/span&gt;" style="text;html=1;align=center;verticalAlign=middle;resizable=0;points=[];autosize=1;strokeColor=none;fillColor=none;fontSize=16;rounded=0;rotation=0;fontStyle=1" parent="1" vertex="1">
          <mxGeometry x="-350" y="369" width="102" height="31" as="geometry" />
        </mxCell>
        <mxCell id="urqGO7AWTMC_Ui9AjQ2h-6" value="&lt;font style=&quot;font-size: 11px;&quot;&gt;Cache Miss&lt;/font&gt;" style="text;html=1;align=center;verticalAlign=middle;resizable=0;points=[];autosize=1;strokeColor=none;fillColor=none;fontSize=16;rounded=0;rotation=0;fontStyle=1" parent="1" vertex="1">
          <mxGeometry x="-43.55" y="135" width="75" height="31" as="geometry" />
        </mxCell>
        <mxCell id="urqGO7AWTMC_Ui9AjQ2h-7" value="&amp;nbsp; &amp;nbsp; &amp;nbsp; &amp;nbsp; &amp;nbsp; &amp;nbsp; &amp;nbsp;Blob Storage" style="rounded=1;whiteSpace=wrap;html=1;fillColor=#F27C44;strokeColor=#6D1F00;fontColor=#FFFFFF;fontStyle=1" parent="1" vertex="1">
          <mxGeometry x="876" y="-105" width="139" height="44" as="geometry" />
        </mxCell>
        <mxCell id="urqGO7AWTMC_Ui9AjQ2h-8" value="" style="sketch=0;html=1;aspect=fixed;strokeColor=none;shadow=0;fillColor=#FFFFFF;verticalAlign=top;labelPosition=center;verticalLabelPosition=bottom;shape=mxgraph.gcp2.files" parent="1" vertex="1">
          <mxGeometry x="884" y="-103" width="39.69" height="38.5" as="geometry" />
        </mxCell>
        <mxCell id="urqGO7AWTMC_Ui9AjQ2h-12" value="&lt;font style=&quot;font-size: 12px;&quot;&gt;API&amp;nbsp;&lt;/font&gt;&lt;span style=&quot;background-color: initial; font-size: 12px;&quot;&gt;Gateway&lt;/span&gt;" style="text;html=1;align=center;verticalAlign=middle;resizable=0;points=[];autosize=1;strokeColor=none;fillColor=none;fontSize=12;rounded=0;fontStyle=1" parent="1" vertex="1">
          <mxGeometry x="-58.5" y="232.5" width="88" height="26" as="geometry" />
        </mxCell>
        <mxCell id="NbxSy4P5_vYFstT8VovK-12" value="" style="endArrow=none;html=1;rounded=0;edgeStyle=elbowEdgeStyle;" parent="1" edge="1">
          <mxGeometry width="50" height="50" relative="1" as="geometry">
            <mxPoint x="429.5" y="-35" as="sourcePoint" />
            <mxPoint x="501" y="-35" as="targetPoint" />
            <Array as="points">
              <mxPoint x="466" y="-59" />
            </Array>
          </mxGeometry>
        </mxCell>
        <mxCell id="NbxSy4P5_vYFstT8VovK-15" value="" style="endArrow=classic;html=1;rounded=0;" parent="1" edge="1">
          <mxGeometry width="50" height="50" relative="1" as="geometry">
            <mxPoint x="465" y="-14" as="sourcePoint" />
            <mxPoint x="465" y="-61" as="targetPoint" />
          </mxGeometry>
        </mxCell>
        <mxCell id="NbxSy4P5_vYFstT8VovK-16" value="" style="endArrow=none;html=1;rounded=0;" parent="1" edge="1">
          <mxGeometry width="50" height="50" relative="1" as="geometry">
            <mxPoint x="430" y="-13" as="sourcePoint" />
            <mxPoint x="430" y="-35" as="targetPoint" />
          </mxGeometry>
        </mxCell>
        <mxCell id="NbxSy4P5_vYFstT8VovK-17" value="" style="endArrow=none;html=1;rounded=0;" parent="1" edge="1">
          <mxGeometry width="50" height="50" relative="1" as="geometry">
            <mxPoint x="501" y="-14" as="sourcePoint" />
            <mxPoint x="501" y="-35" as="targetPoint" />
          </mxGeometry>
        </mxCell>
        <mxCell id="NbxSy4P5_vYFstT8VovK-20" value="" style="endArrow=none;html=1;rounded=0;edgeStyle=elbowEdgeStyle;" parent="1" edge="1">
          <mxGeometry width="50" height="50" relative="1" as="geometry">
            <mxPoint x="576.5" y="-36" as="sourcePoint" />
            <mxPoint x="648" y="-36" as="targetPoint" />
            <Array as="points">
              <mxPoint x="613" y="-60" />
            </Array>
          </mxGeometry>
        </mxCell>
        <mxCell id="NbxSy4P5_vYFstT8VovK-21" value="" style="endArrow=classic;html=1;rounded=0;" parent="1" edge="1">
          <mxGeometry width="50" height="50" relative="1" as="geometry">
            <mxPoint x="612" y="-15" as="sourcePoint" />
            <mxPoint x="612" y="-62" as="targetPoint" />
          </mxGeometry>
        </mxCell>
        <mxCell id="NbxSy4P5_vYFstT8VovK-22" value="" style="endArrow=none;html=1;rounded=0;" parent="1" edge="1">
          <mxGeometry width="50" height="50" relative="1" as="geometry">
            <mxPoint x="577" y="-14" as="sourcePoint" />
            <mxPoint x="577" y="-36" as="targetPoint" />
          </mxGeometry>
        </mxCell>
        <mxCell id="NbxSy4P5_vYFstT8VovK-23" value="" style="endArrow=none;html=1;rounded=0;" parent="1" edge="1">
          <mxGeometry width="50" height="50" relative="1" as="geometry">
            <mxPoint x="648" y="-15" as="sourcePoint" />
            <mxPoint x="648" y="-36" as="targetPoint" />
          </mxGeometry>
        </mxCell>
        <mxCell id="NbxSy4P5_vYFstT8VovK-24" value="" style="rounded=1;whiteSpace=wrap;html=1;fillColor=#C7FFD6;fontStyle=1;strokeColor=#425447;" parent="1" vertex="1">
          <mxGeometry x="258.75" y="-104" width="125.25" height="44" as="geometry" />
        </mxCell>
        <mxCell id="NbxSy4P5_vYFstT8VovK-27" value="" style="sketch=0;outlineConnect=0;fontColor=#232F3E;gradientColor=none;fillColor=#425447;strokeColor=none;dashed=0;verticalLabelPosition=bottom;verticalAlign=top;align=center;html=1;fontSize=12;fontStyle=0;aspect=fixed;pointerEvents=1;shape=mxgraph.aws4.data_encryption_key;" parent="1" vertex="1">
          <mxGeometry x="260" y="-101" width="32.59" height="41" as="geometry" />
        </mxCell>
        <mxCell id="NbxSy4P5_vYFstT8VovK-28" value="" style="endArrow=none;html=1;rounded=0;edgeStyle=elbowEdgeStyle;" parent="1" edge="1">
          <mxGeometry width="50" height="50" relative="1" as="geometry">
            <mxPoint x="294.5" y="-35" as="sourcePoint" />
            <mxPoint x="366" y="-35" as="targetPoint" />
            <Array as="points">
              <mxPoint x="331" y="-59" />
            </Array>
          </mxGeometry>
        </mxCell>
        <mxCell id="NbxSy4P5_vYFstT8VovK-29" value="" style="endArrow=classic;html=1;rounded=0;" parent="1" edge="1">
          <mxGeometry width="50" height="50" relative="1" as="geometry">
            <mxPoint x="330" y="-14" as="sourcePoint" />
            <mxPoint x="330" y="-61" as="targetPoint" />
          </mxGeometry>
        </mxCell>
        <mxCell id="NbxSy4P5_vYFstT8VovK-30" value="" style="endArrow=none;html=1;rounded=0;" parent="1" edge="1">
          <mxGeometry width="50" height="50" relative="1" as="geometry">
            <mxPoint x="295" y="-13" as="sourcePoint" />
            <mxPoint x="295" y="-35" as="targetPoint" />
          </mxGeometry>
        </mxCell>
        <mxCell id="NbxSy4P5_vYFstT8VovK-31" value="" style="endArrow=none;html=1;rounded=0;" parent="1" edge="1">
          <mxGeometry width="50" height="50" relative="1" as="geometry">
            <mxPoint x="366" y="-14" as="sourcePoint" />
            <mxPoint x="366" y="-35" as="targetPoint" />
          </mxGeometry>
        </mxCell>
        <mxCell id="OpT-MC_qUvA9qBk__BMZ-1" value="" style="endArrow=none;html=1;rounded=0;edgeStyle=elbowEdgeStyle;" parent="1" edge="1">
          <mxGeometry width="50" height="50" relative="1" as="geometry">
            <mxPoint x="-52" y="-99" as="sourcePoint" />
            <mxPoint x="19.5" y="-99" as="targetPoint" />
            <Array as="points">
              <mxPoint x="-15.5" y="-123" />
            </Array>
          </mxGeometry>
        </mxCell>
        <mxCell id="OpT-MC_qUvA9qBk__BMZ-2" value="" style="endArrow=classic;html=1;rounded=0;" parent="1" edge="1">
          <mxGeometry width="50" height="50" relative="1" as="geometry">
            <mxPoint x="-16.5" y="-78" as="sourcePoint" />
            <mxPoint x="-16.5" y="-125" as="targetPoint" />
          </mxGeometry>
        </mxCell>
        <mxCell id="OpT-MC_qUvA9qBk__BMZ-3" value="" style="endArrow=none;html=1;rounded=0;" parent="1" edge="1">
          <mxGeometry width="50" height="50" relative="1" as="geometry">
            <mxPoint x="-51.5" y="-77" as="sourcePoint" />
            <mxPoint x="-51.5" y="-99" as="targetPoint" />
          </mxGeometry>
        </mxCell>
        <mxCell id="OpT-MC_qUvA9qBk__BMZ-4" value="" style="endArrow=none;html=1;rounded=0;" parent="1" edge="1">
          <mxGeometry width="50" height="50" relative="1" as="geometry">
            <mxPoint x="19.5" y="-78" as="sourcePoint" />
            <mxPoint x="19.5" y="-99" as="targetPoint" />
          </mxGeometry>
        </mxCell>
        <mxCell id="OpT-MC_qUvA9qBk__BMZ-9" style="edgeStyle=orthogonalEdgeStyle;rounded=0;orthogonalLoop=1;jettySize=auto;html=1;exitX=0.5;exitY=0;exitDx=0;exitDy=0;strokeWidth=2;strokeColor=#005700;" parent="1" source="OpT-MC_qUvA9qBk__BMZ-7" edge="1">
          <mxGeometry relative="1" as="geometry">
            <mxPoint x="947" y="-105" as="targetPoint" />
            <Array as="points">
              <mxPoint x="-116" y="145" />
              <mxPoint x="109" y="145" />
              <mxPoint x="109" y="-137" />
              <mxPoint x="947" y="-137" />
            </Array>
          </mxGeometry>
        </mxCell>
        <mxCell id="OpT-MC_qUvA9qBk__BMZ-7" value="" style="editableCssRules=.*;html=1;shape=image;verticalLabelPosition=bottom;labelBackgroundColor=#ffffff;verticalAlign=top;aspect=fixed;imageAspect=0;image=data:image/svg+xml,PHN2ZyB4bWxucz0iaHR0cDovL3d3dy53My5vcmcvMjAwMC9zdmciIHhtbG5zOnY9Imh0dHBzOi8vdmVjdGEuaW8vbmFubyIgd2lkdGg9IjIwIiBoZWlnaHQ9IjIwIiB2aWV3Qm94PSIwIDAgMjAgMjAiPiYjeGE7CTxzdHlsZSB0eXBlPSJ0ZXh0L2NzcyI+LnN0MCB7IGZpbGw6IHJnYigwLCAwLCAwKTsgfSAuc3QxIHsgZmlsbDogcmdiKDAsIDAsIDApOyB9IC5zdDIgeyBmaWxsOiByZ2IoMCwgMCwgMCk7IH0gPC9zdHlsZT4mI3hhOwk8cGF0aCBjbGFzcz0ic3QxIiBkPSJNMTMuMTMgNS42M1YzLjIxTDEwIDB2Mi40MXptMy43NSA3LjVMMjAgMTBoLTIuNWwtMy4xMiAzLjEzem0tMTMuNzUgMEwwIDEwaDIuNWwzLjEzIDMuMTN6bTEwIDEuMjV2Mi40MUwxMCAyMHYtMi40MXoiIGZpbGwtcnVsZT0iZXZlbm9kZCIvPiYjeGE7CTxwYXRoIGNsYXNzPSJzdDIiIGQ9Ik02Ljg4IDUuNjNMMTAgMi40MVYwTDYuODggMy4yMXpNMTcuNSAxMEgyMGwtMy4xMi0zLjEyaC0yLjV6bS0xNSAwSDBsMy4xMy0zLjEyaDIuNXptNC4zOCA0LjM4TDEwIDE3LjU5VjIwbC0zLjEyLTMuMjF6bTAtNy41aDYuMjV2Ni4yNUg2Ljg4eiIgZmlsbC1ydWxlPSJldmVub2RkIi8+JiN4YTsJPHBhdGggY2xhc3M9InN0MSIgZD0iTTYuODggMTMuMTNsNi4yNS02LjI1djYuMjV6IiBmaWxsLXJ1bGU9ImV2ZW5vZGQiLz4mI3hhOwk8cGF0aCBjbGFzcz0ic3QwIiBkPSJNMTAgMTBsMy4xMy0zLjEydjYuMjV6IiBmaWxsLXJ1bGU9ImV2ZW5vZGQiLz4mI3hhOzwvc3ZnPg==;" parent="1" vertex="1">
          <mxGeometry x="-143.25" y="169.5" width="57.5" height="57.5" as="geometry" />
        </mxCell>
        <mxCell id="uyhA110zfRlWLcyk9HhF-10" style="edgeStyle=orthogonalEdgeStyle;rounded=0;orthogonalLoop=1;jettySize=auto;html=1;exitX=1;exitY=0.5;exitDx=0;exitDy=0;entryX=1;entryY=0.5;entryDx=0;entryDy=0;strokeColor=#005700;strokeWidth=2;" parent="1" source="uyhA110zfRlWLcyk9HhF-1" target="urqGO7AWTMC_Ui9AjQ2h-7" edge="1">
          <mxGeometry relative="1" as="geometry">
            <Array as="points">
              <mxPoint x="1047" y="646" />
              <mxPoint x="1047" y="-83" />
            </Array>
          </mxGeometry>
        </mxCell>
        <mxCell id="uyhA110zfRlWLcyk9HhF-1" value="" style="rounded=1;whiteSpace=wrap;html=1;textShadow=0;strokeColor=default;dashed=1;fillColor=#F7E3EE;shadow=1;strokeWidth=1;" parent="1" vertex="1">
          <mxGeometry x="634" y="613" width="98" height="66" as="geometry" />
        </mxCell>
        <mxCell id="uyhA110zfRlWLcyk9HhF-2" value="" style="rounded=1;whiteSpace=wrap;html=1;fillColor=#EBA80C;strokeColor=#362603;fontColor=#000000;gradientColor=#705006;gradientDirection=south;shadow=1;" parent="1" vertex="1">
          <mxGeometry x="643.25" y="623.49" width="64.75" height="41.51" as="geometry" />
        </mxCell>
        <mxCell id="uyhA110zfRlWLcyk9HhF-3" value="" style="rounded=1;whiteSpace=wrap;html=1;fillColor=#EBA80C;strokeColor=#362603;fontColor=#000000;gradientColor=#705006;gradientDirection=south;shadow=1;" parent="1" vertex="1">
          <mxGeometry x="648" y="628.49" width="68" height="40.51" as="geometry" />
        </mxCell>
        <mxCell id="uyhA110zfRlWLcyk9HhF-4" value="Billing&lt;div&gt;Service&lt;/div&gt;" style="rounded=1;whiteSpace=wrap;html=1;fillColor=#EBA80C;strokeColor=#362603;fontColor=#FFFFFF;gradientColor=#705006;gradientDirection=south;shadow=1;fontStyle=1" parent="1" vertex="1">
          <mxGeometry x="653" y="632.49" width="69" height="39.51" as="geometry" />
        </mxCell>
        <mxCell id="uyhA110zfRlWLcyk9HhF-6" value="" style="verticalLabelPosition=bottom;verticalAlign=top;html=1;shape=mxgraph.basic.half_circle;direction=south;fillColor=#A96E6E;gradientColor=none;" parent="1" vertex="1">
          <mxGeometry x="619" y="623" width="15" height="51" as="geometry" />
        </mxCell>
        <mxCell id="uyhA110zfRlWLcyk9HhF-7" value="ILBS" style="text;html=1;align=center;verticalAlign=middle;resizable=0;points=[];autosize=1;strokeColor=none;fillColor=none;fontSize=10;rotation=270;fontStyle=1;fontColor=#FFFFFF;" parent="1" vertex="1">
          <mxGeometry x="609" y="636.5" width="40" height="24" as="geometry" />
        </mxCell>
        <mxCell id="uyhA110zfRlWLcyk9HhF-11" value="Payment&amp;nbsp;&lt;span style=&quot;background-color: initial;&quot;&gt;Gateway&lt;/span&gt;" style="rounded=1;whiteSpace=wrap;html=1;shadow=1;fontStyle=1;fillColor=#C5A9E8;strokeColor=#645575;strokeWidth=2;direction=south;" parent="1" vertex="1">
          <mxGeometry x="-145.5" y="593.49" width="170" height="75.51" as="geometry" />
        </mxCell>
        <mxCell id="Dt466OA8FrMfWH8e6Gr4-1" value="" style="shape=cylinder3;whiteSpace=wrap;html=1;boundedLbl=1;backgroundOutline=1;size=15;rounded=0;fillColor=#FAD7AC;strokeColor=#B46504;gradientColor=none;" parent="1" vertex="1">
          <mxGeometry x="674" y="330.5" width="44" height="53.5" as="geometry" />
        </mxCell>
        <mxCell id="Dt466OA8FrMfWH8e6Gr4-2" value="NoSQL" style="shape=cylinder3;whiteSpace=wrap;html=1;boundedLbl=1;backgroundOutline=1;size=15;rounded=0;fillColor=#FAD7AC;strokeColor=#B46504;gradientColor=none;fontStyle=1" parent="1" vertex="1">
          <mxGeometry x="680" y="333.5" width="43" height="53.5" as="geometry" />
        </mxCell>
        <mxCell id="hqVNRMzppCiJ99_KFiAW-70" style="edgeStyle=orthogonalEdgeStyle;rounded=0;orthogonalLoop=1;jettySize=auto;html=1;exitX=1;exitY=0.5;exitDx=0;exitDy=0;dashed=1;dashPattern=1 1;" parent="1" source="hqVNRMzppCiJ99_KFiAW-54" edge="1">
          <mxGeometry relative="1" as="geometry">
            <mxPoint x="676" y="367" as="targetPoint" />
          </mxGeometry>
        </mxCell>
        <mxCell id="TE_OKRkOsK2o-EMoypv2-6" value="&lt;font style=&quot;font-size: 11px;&quot;&gt;Third Party Integration&lt;/font&gt;" style="text;html=1;align=center;verticalAlign=middle;resizable=0;points=[];autosize=1;strokeColor=none;fillColor=none;fontSize=16;rounded=0;fontStyle=1" parent="1" vertex="1">
          <mxGeometry x="-308" y="561" width="127" height="31" as="geometry" />
        </mxCell>
        <mxCell id="TE_OKRkOsK2o-EMoypv2-7" value="Secrets&lt;div style=&quot;font-size: 12px;&quot;&gt;Management&lt;/div&gt;" style="text;html=1;align=center;verticalAlign=middle;resizable=0;points=[];autosize=1;strokeColor=none;fillColor=none;fontSize=12;rounded=0;rotation=0;fontStyle=1" parent="1" vertex="1">
          <mxGeometry x="292" y="-100" width="88" height="41" as="geometry" />
        </mxCell>
        <mxCell id="TE_OKRkOsK2o-EMoypv2-8" value="&amp;nbsp; &amp;nbsp; &amp;nbsp; &amp;nbsp; &amp;nbsp; &amp;nbsp; &amp;nbsp; &lt;font color=&quot;#ffffff&quot;&gt;Caching&lt;/font&gt;" style="rounded=1;whiteSpace=wrap;html=1;fillColor=#036897;fontStyle=1;strokeColor=#02354D;" parent="1" vertex="1">
          <mxGeometry x="719" y="-102.5" width="127" height="44" as="geometry" />
        </mxCell>
        <mxCell id="TE_OKRkOsK2o-EMoypv2-14" value="Cloud Managed Services" style="text;html=1;align=center;verticalAlign=middle;resizable=0;points=[];autosize=1;strokeColor=none;fillColor=none;fontSize=11;rounded=0;fontStyle=1" parent="1" vertex="1">
          <mxGeometry x="236" y="-126" width="141" height="25" as="geometry" />
        </mxCell>
        <mxCell id="TE_OKRkOsK2o-EMoypv2-16" value="MicroServices" style="text;html=1;align=center;verticalAlign=middle;resizable=0;points=[];autosize=1;strokeColor=none;fillColor=none;fontSize=11;rounded=0;fontStyle=1" parent="1" vertex="1">
          <mxGeometry x="236" y="-11" width="87" height="25" as="geometry" />
        </mxCell>
        <mxCell id="TE_OKRkOsK2o-EMoypv2-18" style="edgeStyle=none;curved=0;rounded=0;orthogonalLoop=1;jettySize=auto;html=1;exitX=0;exitY=0.5;exitDx=0;exitDy=0;entryX=0;entryY=0.5;entryDx=0;entryDy=0;fontSize=12;startSize=8;endSize=8;fillColor=#008a00;strokeColor=#851B85;strokeWidth=2;" parent="1" edge="1">
          <mxGeometry relative="1" as="geometry">
            <mxPoint x="-124" y="86.75" as="sourcePoint" />
            <mxPoint x="4" y="83.25" as="targetPoint" />
            <Array as="points" />
          </mxGeometry>
        </mxCell>
        <mxCell id="TE_OKRkOsK2o-EMoypv2-19" value="Synchronous - https/Rest&lt;div&gt;Third party communication&lt;/div&gt;" style="text;html=1;align=center;verticalAlign=middle;resizable=0;points=[];autosize=1;fontStyle=1" parent="1" vertex="1">
          <mxGeometry x="-311" y="67" width="159" height="41" as="geometry" />
        </mxCell>
        <mxCell id="TE_OKRkOsK2o-EMoypv2-25" value="" style="verticalLabelPosition=bottom;aspect=fixed;html=1;verticalAlign=top;fillColor=strokeColor;align=center;outlineConnect=0;shape=mxgraph.fluid_power.x11280;points=[[0,0.25,0],[0,0.75,0]];strokeColor=#FFFFFF;labelBackgroundColor=none;strokeWidth=2;" parent="1" vertex="1">
          <mxGeometry x="-14.14" y="313.5" width="48.19" height="36" as="geometry" />
        </mxCell>
        <mxCell id="TE_OKRkOsK2o-EMoypv2-31" value="" style="sketch=0;outlineConnect=0;fontColor=#232F3E;gradientColor=none;fillColor=#FFFFFF;strokeColor=none;dashed=0;verticalLabelPosition=bottom;verticalAlign=top;align=center;html=1;fontSize=12;fontStyle=0;aspect=fixed;pointerEvents=1;shape=mxgraph.aws4.waf_managed_rule;" parent="1" vertex="1">
          <mxGeometry x="-12.55" y="360" width="44" height="44" as="geometry" />
        </mxCell>
        <mxCell id="TE_OKRkOsK2o-EMoypv2-35" value="" style="sketch=0;points=[[0.015,0.015,0],[0.985,0.015,0],[0.985,0.985,0],[0.015,0.985,0],[0.25,0,0],[0.5,0,0],[0.75,0,0],[1,0.25,0],[1,0.5,0],[1,0.75,0],[0.75,1,0],[0.5,1,0],[0.25,1,0],[0,0.75,0],[0,0.5,0],[0,0.25,0]];verticalLabelPosition=bottom;html=1;verticalAlign=top;aspect=fixed;align=center;pointerEvents=1;shape=mxgraph.cisco19.rect;prIcon=appnav;fillColor=none;strokeColor=#FFFFFF;strokeWidth=3;" parent="1" vertex="1">
          <mxGeometry x="-11.05" y="259.5" width="44.5" height="44.5" as="geometry" />
        </mxCell>
        <mxCell id="TE_OKRkOsK2o-EMoypv2-36" value="" style="sketch=0;points=[[0.015,0.015,0],[0.985,0.015,0],[0.985,0.985,0],[0.015,0.985,0],[0.25,0,0],[0.5,0,0],[0.75,0,0],[1,0.25,0],[1,0.5,0],[1,0.75,0],[0.75,1,0],[0.5,1,0],[0.25,1,0],[0,0.75,0],[0,0.5,0],[0,0.25,0]];verticalLabelPosition=bottom;html=1;verticalAlign=top;aspect=fixed;align=center;pointerEvents=1;shape=mxgraph.cisco19.rect;prIcon=appnav;fillColor=none;strokeColor=#FFFFFF;" parent="1" vertex="1">
          <mxGeometry x="723" y="-99.5" width="36.25" height="36.25" as="geometry" />
        </mxCell>
        <mxCell id="TE_OKRkOsK2o-EMoypv2-37" value="Cache" style="text;html=1;align=center;verticalAlign=middle;resizable=0;points=[];autosize=1;strokeColor=none;fillColor=none;fontSize=11;rounded=0;fontStyle=1" parent="1" vertex="1">
          <mxGeometry x="-61.05" y="269.75" width="50" height="25" as="geometry" />
        </mxCell>
        <mxCell id="TE_OKRkOsK2o-EMoypv2-38" value="Rate&lt;div style=&quot;font-size: 11px;&quot;&gt;Limit&lt;/div&gt;" style="text;html=1;align=center;verticalAlign=middle;resizable=0;points=[];autosize=1;strokeColor=none;fillColor=none;fontSize=11;rounded=0;fontStyle=1" parent="1" vertex="1">
          <mxGeometry x="-58.05" y="314" width="41" height="38" as="geometry" />
        </mxCell>
        <mxCell id="TE_OKRkOsK2o-EMoypv2-39" value="WAF" style="text;html=1;align=center;verticalAlign=middle;resizable=0;points=[];autosize=1;strokeColor=none;fillColor=none;fontSize=11;rounded=0;fontStyle=1" parent="1" vertex="1">
          <mxGeometry x="-62.05" y="373" width="42" height="25" as="geometry" />
        </mxCell>
        <mxCell id="TE_OKRkOsK2o-EMoypv2-41" value="Auth&amp;nbsp;&lt;div style=&quot;font-size: 11px;&quot;&gt;&amp;amp;&lt;/div&gt;&lt;div style=&quot;font-size: 11px;&quot;&gt;Authz&lt;/div&gt;" style="text;html=1;align=center;verticalAlign=middle;resizable=0;points=[];autosize=1;strokeColor=none;fillColor=none;fontSize=11;rounded=0;fontStyle=1" parent="1" vertex="1">
          <mxGeometry x="-63.05" y="420.5" width="46" height="52" as="geometry" />
        </mxCell>
        <mxCell id="TE_OKRkOsK2o-EMoypv2-44" value="" style="sketch=0;pointerEvents=1;shadow=0;dashed=0;html=1;strokeColor=none;fillColor=#FFFFFF;labelPosition=center;verticalLabelPosition=bottom;verticalAlign=top;outlineConnect=0;align=center;shape=mxgraph.office.users.administrator;" parent="1" vertex="1">
          <mxGeometry x="-16.57" y="419" width="53.05" height="53" as="geometry" />
        </mxCell>
        <mxCell id="TE_OKRkOsK2o-EMoypv2-45" value="" style="sketch=0;pointerEvents=1;shadow=0;dashed=0;html=1;strokeColor=none;fillColor=#FFFFFF;labelPosition=center;verticalLabelPosition=bottom;verticalAlign=top;outlineConnect=0;align=center;shape=mxgraph.office.users.administrator;" parent="1" vertex="1">
          <mxGeometry x="413" y="-100" width="45" height="43" as="geometry" />
        </mxCell>
        <mxCell id="F7NgOxPpogLXM8x-Sb1u-4" value="Cloud Managed&amp;nbsp;&lt;div&gt;&lt;span style=&quot;background-color: initial;&quot;&gt;Services&lt;/span&gt;&lt;/div&gt;" style="text;html=1;align=center;verticalAlign=middle;resizable=0;points=[];autosize=1;strokeColor=none;fillColor=none;fontSize=11;rounded=0;fontStyle=1" parent="1" vertex="1">
          <mxGeometry x="-165.5" y="477" width="99" height="38" as="geometry" />
        </mxCell>
        <mxCell id="F7NgOxPpogLXM8x-Sb1u-9" value="Notify" style="text;html=1;align=center;verticalAlign=middle;resizable=0;points=[];autosize=1;strokeColor=none;fillColor=none;fontSize=11;rounded=0;rotation=0;fontStyle=1" parent="1" vertex="1">
          <mxGeometry x="550" y="577" width="46" height="25" as="geometry" />
        </mxCell>
        <mxCell id="F7NgOxPpogLXM8x-Sb1u-10" value="Generate&amp;nbsp;&lt;span style=&quot;background-color: initial;&quot;&gt;Invoice&lt;/span&gt;" style="text;html=1;align=center;verticalAlign=middle;resizable=0;points=[];autosize=1;strokeColor=none;fillColor=none;fontSize=11;rounded=0;rotation=0;fontStyle=1" parent="1" vertex="1">
          <mxGeometry x="769" y="593.49" width="102" height="25" as="geometry" />
        </mxCell>
        <mxCell id="F7NgOxPpogLXM8x-Sb1u-11" value="Save&amp;nbsp;&lt;span style=&quot;background-color: initial;&quot;&gt;Invoices&lt;/span&gt;" style="text;html=1;align=center;verticalAlign=middle;resizable=0;points=[];autosize=1;strokeColor=none;fillColor=none;fontSize=11;rounded=0;rotation=0;fontStyle=1" parent="1" vertex="1">
          <mxGeometry x="769" y="644" width="86" height="25" as="geometry" />
        </mxCell>
        <mxCell id="P7hO2bbnkR11tL--QpdS-1" value="&lt;div&gt;Product&amp;nbsp;&lt;span style=&quot;background-color: initial;&quot;&gt;Queue&lt;/span&gt;&lt;/div&gt;" style="rounded=1;whiteSpace=wrap;html=1;direction=west;fillColor=#BF9F9E;strokeColor=#5C4C4C;shadow=1;gradientDirection=east;fontColor=#000000;gradientColor=none;fontStyle=1;fontSize=13;strokeWidth=2;" parent="1" vertex="1">
          <mxGeometry x="834.5" y="119.5" width="97" height="32" as="geometry" />
        </mxCell>
        <mxCell id="P7hO2bbnkR11tL--QpdS-28" style="edgeStyle=orthogonalEdgeStyle;rounded=0;orthogonalLoop=1;jettySize=auto;html=1;exitX=0;exitY=0.5;exitDx=0;exitDy=0;entryX=0;entryY=0.5;entryDx=0;entryDy=0;strokeColor=#B20000;strokeWidth=2;dashed=1;" parent="1" source="P7hO2bbnkR11tL--QpdS-2" target="P7hO2bbnkR11tL--QpdS-14" edge="1">
          <mxGeometry relative="1" as="geometry">
            <Array as="points">
              <mxPoint x="1025" y="213" />
              <mxPoint x="1025" y="374" />
            </Array>
          </mxGeometry>
        </mxCell>
        <mxCell id="P7hO2bbnkR11tL--QpdS-29" style="edgeStyle=orthogonalEdgeStyle;rounded=0;orthogonalLoop=1;jettySize=auto;html=1;exitX=0;exitY=0.5;exitDx=0;exitDy=0;entryX=0;entryY=0.5;entryDx=0;entryDy=0;strokeColor=#B20000;strokeWidth=2;dashed=1;" parent="1" source="P7hO2bbnkR11tL--QpdS-2" target="P7hO2bbnkR11tL--QpdS-11" edge="1">
          <mxGeometry relative="1" as="geometry">
            <Array as="points">
              <mxPoint x="1025" y="213" />
              <mxPoint x="1025" y="286" />
            </Array>
          </mxGeometry>
        </mxCell>
        <mxCell id="P7hO2bbnkR11tL--QpdS-35" style="edgeStyle=orthogonalEdgeStyle;rounded=0;orthogonalLoop=1;jettySize=auto;html=1;exitX=0;exitY=0.5;exitDx=0;exitDy=0;entryX=0;entryY=0.5;entryDx=0;entryDy=0;strokeWidth=2;strokeColor=#B20000;dashed=1;" parent="1" source="P7hO2bbnkR11tL--QpdS-2" target="P7hO2bbnkR11tL--QpdS-16" edge="1">
          <mxGeometry relative="1" as="geometry">
            <Array as="points">
              <mxPoint x="1025" y="213" />
              <mxPoint x="1025" y="493" />
            </Array>
          </mxGeometry>
        </mxCell>
        <mxCell id="P7hO2bbnkR11tL--QpdS-38" style="edgeStyle=orthogonalEdgeStyle;rounded=0;orthogonalLoop=1;jettySize=auto;html=1;exitX=0;exitY=0.5;exitDx=0;exitDy=0;entryX=0;entryY=0.5;entryDx=0;entryDy=0;strokeWidth=2;strokeColor=#B20000;dashed=1;" parent="1" source="P7hO2bbnkR11tL--QpdS-2" target="Z5AxZRiR1ccud-SpPowU-1" edge="1">
          <mxGeometry relative="1" as="geometry">
            <Array as="points">
              <mxPoint x="1025" y="213" />
              <mxPoint x="1025" y="318" />
              <mxPoint x="928" y="318" />
            </Array>
          </mxGeometry>
        </mxCell>
        <mxCell id="P7hO2bbnkR11tL--QpdS-44" style="edgeStyle=orthogonalEdgeStyle;rounded=0;orthogonalLoop=1;jettySize=auto;html=1;exitX=0;exitY=0.5;exitDx=0;exitDy=0;entryX=0;entryY=0.5;entryDx=0;entryDy=0;strokeColor=#B20000;dashed=1;strokeWidth=2;" parent="1" source="P7hO2bbnkR11tL--QpdS-2" target="P7hO2bbnkR11tL--QpdS-42" edge="1">
          <mxGeometry relative="1" as="geometry">
            <Array as="points">
              <mxPoint x="1025" y="213" />
              <mxPoint x="1025" y="546" />
            </Array>
          </mxGeometry>
        </mxCell>
        <mxCell id="Z5AxZRiR1ccud-SpPowU-8" style="edgeStyle=orthogonalEdgeStyle;rounded=0;orthogonalLoop=1;jettySize=auto;html=1;exitX=0;exitY=0.5;exitDx=0;exitDy=0;entryX=0;entryY=0.5;entryDx=0;entryDy=0;strokeColor=#B20000;strokeWidth=2;dashed=1;" parent="1" source="P7hO2bbnkR11tL--QpdS-2" target="Z5AxZRiR1ccud-SpPowU-6" edge="1">
          <mxGeometry relative="1" as="geometry">
            <Array as="points">
              <mxPoint x="1025" y="213" />
              <mxPoint x="1025" y="593" />
            </Array>
          </mxGeometry>
        </mxCell>
        <mxCell id="P7hO2bbnkR11tL--QpdS-2" value="Order&lt;br&gt;Topic" style="rounded=1;whiteSpace=wrap;html=1;direction=west;fillColor=#BF9F9E;strokeColor=#5C4C4C;shadow=1;gradientDirection=east;fontColor=#000000;gradientColor=none;fontStyle=1;fontSize=13;strokeWidth=2;" parent="1" vertex="1">
          <mxGeometry x="782" y="189.5" width="199" height="46.5" as="geometry" />
        </mxCell>
        <mxCell id="P7hO2bbnkR11tL--QpdS-19" style="edgeStyle=orthogonalEdgeStyle;rounded=0;orthogonalLoop=1;jettySize=auto;html=1;exitX=0.5;exitY=1;exitDx=0;exitDy=0;entryX=0.25;entryY=0;entryDx=0;entryDy=0;strokeColor=#B20000;strokeWidth=2;dashed=1;" parent="1" source="Z5AxZRiR1ccud-SpPowU-1" target="hqVNRMzppCiJ99_KFiAW-19" edge="1">
          <mxGeometry relative="1" as="geometry">
            <Array as="points">
              <mxPoint x="831" y="286" />
              <mxPoint x="317" y="286" />
            </Array>
          </mxGeometry>
        </mxCell>
        <mxCell id="P7hO2bbnkR11tL--QpdS-11" value="Inventory Queue" style="rounded=1;whiteSpace=wrap;html=1;direction=west;fillColor=#BF9F9E;strokeColor=#5C4C4C;shadow=1;gradientDirection=east;fontColor=#000000;gradientColor=none;fontStyle=1;fontSize=13;strokeWidth=2;" parent="1" vertex="1">
          <mxGeometry x="906" y="269.5" width="97" height="32" as="geometry" />
        </mxCell>
        <mxCell id="P7hO2bbnkR11tL--QpdS-24" style="edgeStyle=orthogonalEdgeStyle;rounded=0;orthogonalLoop=1;jettySize=auto;html=1;exitX=0.75;exitY=0;exitDx=0;exitDy=0;strokeColor=#B20000;strokeWidth=2;dashed=1;entryX=0.75;entryY=0;entryDx=0;entryDy=0;" parent="1" source="P7hO2bbnkR11tL--QpdS-14" target="hqVNRMzppCiJ99_KFiAW-59" edge="1">
          <mxGeometry relative="1" as="geometry">
            <Array as="points">
              <mxPoint x="922" y="437" />
              <mxPoint x="405" y="437" />
            </Array>
          </mxGeometry>
        </mxCell>
        <mxCell id="P7hO2bbnkR11tL--QpdS-26" style="edgeStyle=orthogonalEdgeStyle;rounded=0;orthogonalLoop=1;jettySize=auto;html=1;exitX=0.5;exitY=1;exitDx=0;exitDy=0;entryX=0.75;entryY=1;entryDx=0;entryDy=0;strokeColor=#B20000;strokeWidth=2;dashed=1;" parent="1" source="Z5AxZRiR1ccud-SpPowU-4" target="hqVNRMzppCiJ99_KFiAW-30" edge="1">
          <mxGeometry relative="1" as="geometry">
            <Array as="points">
              <mxPoint x="831" y="375" />
              <mxPoint x="773" y="375" />
              <mxPoint x="773" y="298" />
              <mxPoint x="406" y="298" />
            </Array>
          </mxGeometry>
        </mxCell>
        <mxCell id="P7hO2bbnkR11tL--QpdS-37" style="edgeStyle=orthogonalEdgeStyle;rounded=0;orthogonalLoop=1;jettySize=auto;html=1;exitX=1;exitY=0.5;exitDx=0;exitDy=0;entryX=1;entryY=0.5;entryDx=0;entryDy=0;strokeWidth=2;strokeColor=#B20000;dashed=1;" parent="1" source="P7hO2bbnkR11tL--QpdS-11" target="ILpzqOGEgMHz32oO7xNn-136" edge="1">
          <mxGeometry relative="1" as="geometry">
            <Array as="points">
              <mxPoint x="886" y="286" />
              <mxPoint x="886" y="251" />
              <mxPoint x="759" y="251" />
              <mxPoint x="759" y="214" />
            </Array>
          </mxGeometry>
        </mxCell>
        <mxCell id="P7hO2bbnkR11tL--QpdS-14" value="&amp;nbsp;Payment Queue" style="rounded=1;whiteSpace=wrap;html=1;direction=west;fillColor=#BF9F9E;strokeColor=#5C4C4C;shadow=1;gradientDirection=east;fontColor=#000000;gradientColor=none;fontStyle=1;fontSize=13;strokeWidth=2;" parent="1" vertex="1">
          <mxGeometry x="894" y="356" width="111.5" height="35" as="geometry" />
        </mxCell>
        <mxCell id="P7hO2bbnkR11tL--QpdS-33" style="edgeStyle=orthogonalEdgeStyle;rounded=0;orthogonalLoop=1;jettySize=auto;html=1;exitX=1;exitY=0.5;exitDx=0;exitDy=0;strokeWidth=2;dashed=1;strokeColor=#B20000;entryX=1;entryY=0.5;entryDx=0;entryDy=0;" parent="1" source="P7hO2bbnkR11tL--QpdS-16" target="hqVNRMzppCiJ99_KFiAW-83" edge="1">
          <mxGeometry relative="1" as="geometry">
            <mxPoint x="740" y="485" as="targetPoint" />
            <Array as="points">
              <mxPoint x="893" y="499" />
              <mxPoint x="793" y="499" />
            </Array>
          </mxGeometry>
        </mxCell>
        <mxCell id="P7hO2bbnkR11tL--QpdS-16" value="Shipping Queue" style="rounded=1;whiteSpace=wrap;html=1;direction=west;fillColor=#BF9F9E;strokeColor=#5C4C4C;shadow=1;gradientDirection=east;fontColor=#000000;gradientColor=none;fontStyle=1;fontSize=13;strokeWidth=2;" parent="1" vertex="1">
          <mxGeometry x="893" y="477" width="97" height="32" as="geometry" />
        </mxCell>
        <mxCell id="P7hO2bbnkR11tL--QpdS-20" value="Clear Cart" style="text;html=1;align=center;verticalAlign=middle;resizable=0;points=[];autosize=1;strokeColor=none;fillColor=none;fontSize=11;rounded=0;rotation=0;fontStyle=1" parent="1" vertex="1">
          <mxGeometry x="522.0000000000001" y="258.5" width="68" height="25" as="geometry" />
        </mxCell>
        <mxCell id="P7hO2bbnkR11tL--QpdS-25" value="Initiate Payment" style="text;html=1;align=center;verticalAlign=middle;resizable=0;points=[];autosize=1;strokeColor=none;fillColor=none;fontSize=11;rounded=0;rotation=0;fontStyle=1" parent="1" vertex="1">
          <mxGeometry x="519" y="434" width="97" height="25" as="geometry" />
        </mxCell>
        <mxCell id="P7hO2bbnkR11tL--QpdS-27" value="Update Payment Url/&amp;nbsp;&lt;span style=&quot;background-color: initial;&quot;&gt;Status&lt;/span&gt;" style="text;html=1;align=center;verticalAlign=middle;resizable=0;points=[];autosize=1;strokeColor=none;fillColor=none;fontSize=11;rounded=0;rotation=0;fontStyle=1" parent="1" vertex="1">
          <mxGeometry x="524" y="299" width="154" height="25" as="geometry" />
        </mxCell>
        <mxCell id="P7hO2bbnkR11tL--QpdS-30" value="Order Created&amp;nbsp;&amp;nbsp;&lt;div&gt;Clear Cart&lt;/div&gt;" style="text;html=1;align=center;verticalAlign=middle;resizable=0;points=[];autosize=1;strokeColor=none;fillColor=none;fontSize=11;rounded=0;rotation=0;fontStyle=1" parent="1" vertex="1">
          <mxGeometry x="907.5" y="314" width="94" height="38" as="geometry" />
        </mxCell>
        <mxCell id="P7hO2bbnkR11tL--QpdS-36" value="Order Placed&amp;nbsp;&lt;div&gt;&amp;nbsp;Ship Order&lt;/div&gt;" style="text;html=1;align=center;verticalAlign=middle;resizable=0;points=[];autosize=1;strokeColor=none;fillColor=none;fontSize=11;rounded=0;rotation=0;fontStyle=1" parent="1" vertex="1">
          <mxGeometry x="940.25" y="439" width="86" height="38" as="geometry" />
        </mxCell>
        <mxCell id="P7hO2bbnkR11tL--QpdS-39" value="Order Placed&lt;div&gt;&amp;nbsp;&lt;span style=&quot;background-color: initial;&quot;&gt;Update Inventory&lt;/span&gt;&lt;/div&gt;" style="text;html=1;align=center;verticalAlign=middle;resizable=0;points=[];autosize=1;strokeColor=none;fillColor=none;fontSize=11;rounded=0;rotation=0;fontStyle=1" parent="1" vertex="1">
          <mxGeometry x="912" y="234" width="105" height="38" as="geometry" />
        </mxCell>
        <mxCell id="P7hO2bbnkR11tL--QpdS-40" value="Update&amp;nbsp;&lt;span style=&quot;background-color: initial;&quot;&gt;Inventory&lt;/span&gt;" style="text;html=1;align=center;verticalAlign=middle;resizable=0;points=[];autosize=1;strokeColor=none;fillColor=none;fontSize=11;rounded=0;rotation=0;fontStyle=1" parent="1" vertex="1">
          <mxGeometry x="781" y="250" width="102" height="25" as="geometry" />
        </mxCell>
        <mxCell id="P7hO2bbnkR11tL--QpdS-43" style="edgeStyle=orthogonalEdgeStyle;rounded=0;orthogonalLoop=1;jettySize=auto;html=1;exitX=1;exitY=0.5;exitDx=0;exitDy=0;entryX=0.5;entryY=0;entryDx=0;entryDy=0;strokeColor=#B20000;strokeWidth=2;dashed=1;" parent="1" source="P7hO2bbnkR11tL--QpdS-42" target="KnMCrY_Kx2zRuAthfWW4-1" edge="1">
          <mxGeometry relative="1" as="geometry">
            <Array as="points">
              <mxPoint x="821" y="546" />
              <mxPoint x="821" y="576" />
              <mxPoint x="542" y="576" />
            </Array>
          </mxGeometry>
        </mxCell>
        <mxCell id="P7hO2bbnkR11tL--QpdS-42" value="Notofication Queue" style="rounded=1;whiteSpace=wrap;html=1;direction=west;fillColor=#BF9F9E;strokeColor=#5C4C4C;shadow=1;gradientDirection=east;fontColor=#000000;gradientColor=none;fontStyle=1;fontSize=13;strokeWidth=2;" parent="1" vertex="1">
          <mxGeometry x="782" y="530" width="97" height="32" as="geometry" />
        </mxCell>
        <mxCell id="P7hO2bbnkR11tL--QpdS-45" value="All Order Events" style="text;html=1;align=center;verticalAlign=middle;resizable=0;points=[];autosize=1;strokeColor=none;fillColor=none;fontSize=11;rounded=0;rotation=0;fontStyle=1" parent="1" vertex="1">
          <mxGeometry x="896.5" y="520" width="98" height="25" as="geometry" />
        </mxCell>
        <mxCell id="P7hO2bbnkR11tL--QpdS-50" value="" style="edgeStyle=orthogonalEdgeStyle;rounded=0;orthogonalLoop=1;jettySize=auto;html=1;exitX=0.75;exitY=0;exitDx=0;exitDy=0;entryX=0.5;entryY=1;entryDx=0;entryDy=0;strokeColor=#B20000;fontStyle=1;strokeWidth=2;dashed=1;" parent="1" source="hqVNRMzppCiJ99_KFiAW-30" target="P7hO2bbnkR11tL--QpdS-2" edge="1">
          <mxGeometry relative="1" as="geometry">
            <Array as="points">
              <mxPoint x="406" y="164" />
              <mxPoint x="882" y="164" />
              <mxPoint x="882" y="167" />
            </Array>
            <mxPoint x="406" y="250" as="sourcePoint" />
            <mxPoint x="820" y="190" as="targetPoint" />
          </mxGeometry>
        </mxCell>
        <mxCell id="hqVNRMzppCiJ99_KFiAW-157" value="Order Created/ Order Placed/ Cancelled" style="text;html=1;align=center;verticalAlign=middle;resizable=0;points=[];autosize=1;strokeColor=none;fillColor=none;fontSize=11;rounded=0;rotation=0;fontStyle=1" parent="1" vertex="1">
          <mxGeometry x="526.5000000000001" y="142" width="214" height="25" as="geometry" />
        </mxCell>
        <mxCell id="P7hO2bbnkR11tL--QpdS-54" value="Cloud Managed Services" style="text;html=1;align=center;verticalAlign=middle;resizable=0;points=[];autosize=1;strokeColor=none;fillColor=none;fontSize=11;rounded=0;fontStyle=1" parent="1" vertex="1">
          <mxGeometry x="763.5" y="-11" width="141" height="25" as="geometry" />
        </mxCell>
        <mxCell id="P7hO2bbnkR11tL--QpdS-55" value="Async Communication" style="text;html=1;align=center;verticalAlign=middle;resizable=0;points=[];autosize=1;strokeColor=none;fillColor=none;fontStyle=1" parent="1" vertex="1">
          <mxGeometry x="840" y="23" width="137" height="26" as="geometry" />
        </mxCell>
        <mxCell id="P7hO2bbnkR11tL--QpdS-56" value="" style="endArrow=none;html=1;rounded=0;edgeStyle=elbowEdgeStyle;" parent="1" edge="1">
          <mxGeometry width="50" height="50" relative="1" as="geometry">
            <mxPoint x="751.5" y="-35" as="sourcePoint" />
            <mxPoint x="823" y="-35" as="targetPoint" />
            <Array as="points">
              <mxPoint x="788" y="-59" />
            </Array>
          </mxGeometry>
        </mxCell>
        <mxCell id="P7hO2bbnkR11tL--QpdS-57" value="" style="endArrow=classic;html=1;rounded=0;" parent="1" edge="1">
          <mxGeometry width="50" height="50" relative="1" as="geometry">
            <mxPoint x="787" y="-14" as="sourcePoint" />
            <mxPoint x="787" y="-61" as="targetPoint" />
          </mxGeometry>
        </mxCell>
        <mxCell id="P7hO2bbnkR11tL--QpdS-58" value="" style="endArrow=none;html=1;rounded=0;" parent="1" edge="1">
          <mxGeometry width="50" height="50" relative="1" as="geometry">
            <mxPoint x="752" y="-13" as="sourcePoint" />
            <mxPoint x="752" y="-35" as="targetPoint" />
          </mxGeometry>
        </mxCell>
        <mxCell id="P7hO2bbnkR11tL--QpdS-59" value="" style="endArrow=none;html=1;rounded=0;" parent="1" edge="1">
          <mxGeometry width="50" height="50" relative="1" as="geometry">
            <mxPoint x="823" y="-14" as="sourcePoint" />
            <mxPoint x="823" y="-35" as="targetPoint" />
          </mxGeometry>
        </mxCell>
        <mxCell id="P7hO2bbnkR11tL--QpdS-62" value="All user events" style="text;html=1;align=center;verticalAlign=middle;resizable=0;points=[];autosize=1;strokeColor=none;fillColor=none;fontSize=11;rounded=0;rotation=0;fontStyle=1" parent="1" vertex="1">
          <mxGeometry x="529.25" y="542" width="90" height="25" as="geometry" />
        </mxCell>
        <mxCell id="Z5AxZRiR1ccud-SpPowU-1" value="Cart Queue" style="rounded=1;whiteSpace=wrap;html=1;direction=west;fillColor=#BF9F9E;strokeColor=#5C4C4C;shadow=1;gradientDirection=east;fontColor=#000000;gradientColor=none;fontStyle=1;fontSize=13;strokeWidth=2;" parent="1" vertex="1">
          <mxGeometry x="782" y="301.5" width="97" height="32" as="geometry" />
        </mxCell>
        <mxCell id="Z5AxZRiR1ccud-SpPowU-5" value="" style="edgeStyle=orthogonalEdgeStyle;rounded=0;orthogonalLoop=1;jettySize=auto;html=1;exitX=0.5;exitY=0;exitDx=0;exitDy=0;entryX=1;entryY=0.5;entryDx=0;entryDy=0;strokeColor=#B20000;strokeWidth=2;dashed=1;" parent="1" source="hqVNRMzppCiJ99_KFiAW-59" target="Z5AxZRiR1ccud-SpPowU-4" edge="1">
          <mxGeometry relative="1" as="geometry">
            <Array as="points" />
            <mxPoint x="361" y="460" as="sourcePoint" />
            <mxPoint x="894" y="374" as="targetPoint" />
          </mxGeometry>
        </mxCell>
        <mxCell id="Z5AxZRiR1ccud-SpPowU-4" value="&amp;nbsp;Order Queue" style="rounded=1;whiteSpace=wrap;html=1;direction=west;fillColor=#BF9F9E;strokeColor=#5C4C4C;shadow=1;gradientDirection=east;fontColor=#000000;gradientColor=none;fontStyle=1;fontSize=13;strokeWidth=2;" parent="1" vertex="1">
          <mxGeometry x="774.75" y="392" width="111.5" height="35" as="geometry" />
        </mxCell>
        <mxCell id="Z5AxZRiR1ccud-SpPowU-7" style="edgeStyle=orthogonalEdgeStyle;rounded=0;orthogonalLoop=1;jettySize=auto;html=1;exitX=1;exitY=0.5;exitDx=0;exitDy=0;entryX=0.5;entryY=0;entryDx=0;entryDy=0;strokeColor=#B20000;strokeWidth=2;dashed=1;" parent="1" source="Z5AxZRiR1ccud-SpPowU-6" target="uyhA110zfRlWLcyk9HhF-1" edge="1">
          <mxGeometry relative="1" as="geometry" />
        </mxCell>
        <mxCell id="Z5AxZRiR1ccud-SpPowU-6" value="Billing Queue" style="rounded=1;whiteSpace=wrap;html=1;direction=west;fillColor=#BF9F9E;strokeColor=#5C4C4C;shadow=1;gradientDirection=east;fontColor=#000000;gradientColor=none;fontStyle=1;fontSize=13;strokeWidth=2;" parent="1" vertex="1">
          <mxGeometry x="901.25" y="577" width="97" height="32" as="geometry" />
        </mxCell>
        <mxCell id="Z5AxZRiR1ccud-SpPowU-9" value="Order Placed&amp;nbsp;&lt;div&gt;&amp;nbsp;Generate Invoice&lt;/div&gt;" style="text;html=1;align=center;verticalAlign=middle;resizable=0;points=[];autosize=1;strokeColor=none;fillColor=none;fontSize=11;rounded=0;rotation=0;fontStyle=1" parent="1" vertex="1">
          <mxGeometry x="934" y="607" width="105" height="38" as="geometry" />
        </mxCell>
        <mxCell id="Z5AxZRiR1ccud-SpPowU-10" style="edgeStyle=orthogonalEdgeStyle;rounded=0;orthogonalLoop=1;jettySize=auto;html=1;entryX=0.5;entryY=1;entryDx=0;entryDy=0;entryPerimeter=0;startArrow=none;startFill=0;strokeWidth=2;" parent="1" source="98wAxy-DsdHwi_wowS8c-1" target="98wAxy-DsdHwi_wowS8c-2" edge="1">
          <mxGeometry relative="1" as="geometry">
            <mxPoint x="-222" y="331.5" as="sourcePoint" />
            <mxPoint x="-222" y="225.6500000000001" as="targetPoint" />
          </mxGeometry>
        </mxCell>
        <mxCell id="Z5AxZRiR1ccud-SpPowU-12" value="&lt;font style=&quot;font-size: 11px;&quot;&gt;Resolve&lt;/font&gt;&lt;div&gt;&lt;font style=&quot;font-size: 11px;&quot;&gt;DNS&lt;/font&gt;&lt;/div&gt;" style="text;html=1;align=center;verticalAlign=middle;resizable=0;points=[];autosize=1;strokeColor=none;fillColor=none;fontSize=16;rounded=0;fontStyle=1" parent="1" vertex="1">
          <mxGeometry x="-279" y="248" width="58" height="50" as="geometry" />
        </mxCell>
        <mxCell id="Z5AxZRiR1ccud-SpPowU-13" value="&lt;span style=&quot;font-size: 11px;&quot;&gt;Static&amp;nbsp;&lt;/span&gt;&lt;div&gt;&lt;span style=&quot;font-size: 11px;&quot;&gt;Content&lt;/span&gt;&lt;/div&gt;" style="text;html=1;align=center;verticalAlign=middle;resizable=0;points=[];autosize=1;strokeColor=none;fillColor=none;fontSize=16;rounded=0;fontStyle=1" parent="1" vertex="1">
          <mxGeometry x="-169" y="264" width="57" height="50" as="geometry" />
        </mxCell>
        <mxCell id="Z5AxZRiR1ccud-SpPowU-14" value="&lt;span style=&quot;font-size: 11px;&quot;&gt;Service&lt;/span&gt;&lt;div&gt;&lt;span style=&quot;font-size: 11px;&quot;&gt;Request&lt;/span&gt;&lt;/div&gt;" style="text;html=1;align=center;verticalAlign=middle;resizable=0;points=[];autosize=1;strokeColor=none;fillColor=none;fontSize=16;rounded=0;fontStyle=1" parent="1" vertex="1">
          <mxGeometry x="-157" y="355.5" width="59" height="50" as="geometry" />
        </mxCell>
        <mxCell id="Z5AxZRiR1ccud-SpPowU-16" value="&lt;span style=&quot;font-size: 11px;&quot;&gt;Payment Url/ Status&lt;/span&gt;" style="text;html=1;align=center;verticalAlign=middle;resizable=0;points=[];autosize=1;strokeColor=none;fillColor=none;fontSize=16;rounded=0;fontStyle=1" parent="1" vertex="1">
          <mxGeometry x="80" y="546" width="116" height="31" as="geometry" />
        </mxCell>
        <mxCell id="Z5AxZRiR1ccud-SpPowU-17" value="&lt;span style=&quot;font-size: 11px;&quot;&gt;Payment&lt;/span&gt;" style="text;html=1;align=center;verticalAlign=middle;resizable=0;points=[];autosize=1;strokeColor=none;fillColor=none;fontSize=16;rounded=0;fontStyle=1" parent="1" vertex="1">
          <mxGeometry x="-282" y="472" width="61" height="31" as="geometry" />
        </mxCell>
        <mxCell id="98wAxy-DsdHwi_wowS8c-1" value="Browser" style="sketch=0;pointerEvents=1;shadow=0;dashed=0;html=1;strokeColor=none;fillColor=#434445;aspect=fixed;labelPosition=center;verticalLabelPosition=middle;verticalAlign=middle;align=center;outlineConnect=0;shape=mxgraph.vvd.web_browser;fontStyle=1" parent="1" vertex="1">
          <mxGeometry x="-250.37" y="341" width="54.93" height="39" as="geometry" />
        </mxCell>
        <mxCell id="98wAxy-DsdHwi_wowS8c-2" value="" style="sketch=0;points=[[0.015,0.015,0],[0.985,0.015,0],[0.985,0.985,0],[0.015,0.985,0],[0.25,0,0],[0.5,0,0],[0.75,0,0],[1,0.25,0],[1,0.5,0],[1,0.75,0],[0.75,1,0],[0.5,1,0],[0.25,1,0],[0,0.75,0],[0,0.5,0],[0,0.25,0]];verticalLabelPosition=bottom;html=1;verticalAlign=top;aspect=fixed;align=center;pointerEvents=1;shape=mxgraph.cisco19.dns_server;fillColor=#000000;strokeColor=none;" parent="1" vertex="1">
          <mxGeometry x="-237" y="168" width="27.500000000000004" height="50" as="geometry" />
        </mxCell>
      </root>
    </mxGraphModel>
  </diagram>
</mxfile>
